%FSLAX45Y45*%
G04 Gerber Fmt 4.5, Leading zero omitted, Abs format (unit mm)*
G04 Created by KiCad (PCBNEW (5.1.2-1)-1) date 2019-05-17 18:31:45*
%MOMM*%
%LPD*%
G04 APERTURE LIST*
%ADD10C,0.050000*%
%ADD11C,0.200000*%
%ADD12C,0.300000*%
G04 APERTURE END LIST*
D10*
X9710000Y-11522000D02*
X9710000Y-6522000D01*
X15710000Y-11522000D02*
X9710000Y-11522000D01*
X15710000Y-6522000D02*
X15710000Y-11522000D01*
X9710000Y-6522000D02*
X15710000Y-6522000D01*
D11*
X10554000Y-11182000D02*
X10634000Y-11262000D01*
X10634000Y-11182000D02*
X10554000Y-11262000D01*
X11570000Y-11182000D02*
X11650000Y-11262000D01*
X11650000Y-11182000D02*
X11570000Y-11262000D01*
X12570000Y-6982000D02*
X12650000Y-7062000D01*
X12650000Y-6982000D02*
X12570000Y-7062000D01*
X12570000Y-7236000D02*
X12650000Y-7316000D01*
X12650000Y-7236000D02*
X12570000Y-7316000D01*
X12570000Y-7490000D02*
X12650000Y-7570000D01*
X12650000Y-7490000D02*
X12570000Y-7570000D01*
X12570000Y-7744000D02*
X12650000Y-7824000D01*
X12650000Y-7744000D02*
X12570000Y-7824000D01*
X12570000Y-7998000D02*
X12650000Y-8078000D01*
X12650000Y-7998000D02*
X12570000Y-8078000D01*
X12570000Y-8252000D02*
X12650000Y-8332000D01*
X12650000Y-8252000D02*
X12570000Y-8332000D01*
X12570000Y-8506000D02*
X12650000Y-8586000D01*
X12650000Y-8506000D02*
X12570000Y-8586000D01*
X12570000Y-8760000D02*
X12650000Y-8840000D01*
X12650000Y-8760000D02*
X12570000Y-8840000D01*
X13586000Y-6982000D02*
X13666000Y-7062000D01*
X13666000Y-6982000D02*
X13586000Y-7062000D01*
X13586000Y-7236000D02*
X13666000Y-7316000D01*
X13666000Y-7236000D02*
X13586000Y-7316000D01*
X13586000Y-7490000D02*
X13666000Y-7570000D01*
X13666000Y-7490000D02*
X13586000Y-7570000D01*
X13586000Y-7744000D02*
X13666000Y-7824000D01*
X13666000Y-7744000D02*
X13586000Y-7824000D01*
X13586000Y-7998000D02*
X13666000Y-8078000D01*
X13666000Y-7998000D02*
X13586000Y-8078000D01*
X13586000Y-8252000D02*
X13666000Y-8332000D01*
X13666000Y-8252000D02*
X13586000Y-8332000D01*
X13586000Y-8506000D02*
X13666000Y-8586000D01*
X13666000Y-8506000D02*
X13586000Y-8586000D01*
X13586000Y-8760000D02*
X13666000Y-8840000D01*
X13666000Y-8760000D02*
X13586000Y-8840000D01*
X10320100Y-9069200D02*
G75*
G03X10320100Y-9069200I-50000J0D01*
G01*
X10320100Y-9323200D02*
G75*
G03X10320100Y-9323200I-50000J0D01*
G01*
X10320100Y-9577200D02*
G75*
G03X10320100Y-9577200I-50000J0D01*
G01*
X10320100Y-9831200D02*
G75*
G03X10320100Y-9831200I-50000J0D01*
G01*
X10320100Y-10085200D02*
G75*
G03X10320100Y-10085200I-50000J0D01*
G01*
X10660000Y-10522000D02*
G75*
G03X10660000Y-10522000I-50000J0D01*
G01*
X10660000Y-10776000D02*
G75*
G03X10660000Y-10776000I-50000J0D01*
G01*
X10210000Y-7667000D02*
X10210000Y-7777000D01*
X10155000Y-7722000D02*
X10265000Y-7722000D01*
X10210000Y-8167000D02*
X10210000Y-8277000D01*
X10155000Y-8222000D02*
X10265000Y-8222000D01*
X10710000Y-7667000D02*
X10710000Y-7777000D01*
X10655000Y-7722000D02*
X10765000Y-7722000D01*
X10710000Y-8167000D02*
X10710000Y-8277000D01*
X10655000Y-8222000D02*
X10765000Y-8222000D01*
X12006245Y-9272245D02*
X12006245Y-9193755D01*
X11927755Y-9193755D01*
X11927755Y-9272245D01*
X12006245Y-9272245D01*
X12006245Y-9526245D02*
X12006245Y-9447755D01*
X11927755Y-9447755D01*
X11927755Y-9526245D01*
X12006245Y-9526245D01*
X12006245Y-9780245D02*
X12006245Y-9701755D01*
X11927755Y-9701755D01*
X11927755Y-9780245D01*
X12006245Y-9780245D01*
X12006245Y-10034245D02*
X12006245Y-9955755D01*
X11927755Y-9955755D01*
X11927755Y-10034245D01*
X12006245Y-10034245D01*
X12006245Y-10288245D02*
X12006245Y-10209755D01*
X11927755Y-10209755D01*
X11927755Y-10288245D01*
X12006245Y-10288245D01*
X12006245Y-10542245D02*
X12006245Y-10463755D01*
X11927755Y-10463755D01*
X11927755Y-10542245D01*
X12006245Y-10542245D01*
X12006245Y-10796245D02*
X12006245Y-10717755D01*
X11927755Y-10717755D01*
X11927755Y-10796245D01*
X12006245Y-10796245D01*
X12006245Y-11050245D02*
X12006245Y-10971755D01*
X11927755Y-10971755D01*
X11927755Y-11050245D01*
X12006245Y-11050245D01*
X14292245Y-9272245D02*
X14292245Y-9193755D01*
X14213755Y-9193755D01*
X14213755Y-9272245D01*
X14292245Y-9272245D01*
X14292245Y-9526245D02*
X14292245Y-9447755D01*
X14213755Y-9447755D01*
X14213755Y-9526245D01*
X14292245Y-9526245D01*
X14292245Y-9780245D02*
X14292245Y-9701755D01*
X14213755Y-9701755D01*
X14213755Y-9780245D01*
X14292245Y-9780245D01*
X14292245Y-10034245D02*
X14292245Y-9955755D01*
X14213755Y-9955755D01*
X14213755Y-10034245D01*
X14292245Y-10034245D01*
X14292245Y-10288245D02*
X14292245Y-10209755D01*
X14213755Y-10209755D01*
X14213755Y-10288245D01*
X14292245Y-10288245D01*
X14292245Y-10542245D02*
X14292245Y-10463755D01*
X14213755Y-10463755D01*
X14213755Y-10542245D01*
X14292245Y-10542245D01*
X14292245Y-10796245D02*
X14292245Y-10717755D01*
X14213755Y-10717755D01*
X14213755Y-10796245D01*
X14292245Y-10796245D01*
X14292245Y-11050245D02*
X14292245Y-10971755D01*
X14213755Y-10971755D01*
X14213755Y-11050245D01*
X14292245Y-11050245D01*
X15310000Y-7074400D02*
X15462400Y-6922000D01*
X15310000Y-6769600D01*
X15157600Y-6922000D01*
X15310000Y-7074400D01*
X10110000Y-11274400D02*
X10262400Y-11122000D01*
X10110000Y-10969600D01*
X9957600Y-11122000D01*
X10110000Y-11274400D01*
X11471600Y-8720100D02*
X11624000Y-8567700D01*
X11471600Y-8415300D01*
X11319200Y-8567700D01*
X11471600Y-8720100D01*
X11471600Y-10720100D02*
X11624000Y-10567700D01*
X11471600Y-10415300D01*
X11319200Y-10567700D01*
X11471600Y-10720100D01*
X14671600Y-8720100D02*
X14824000Y-8567700D01*
X14671600Y-8415300D01*
X14519200Y-8567700D01*
X14671600Y-8720100D01*
X14671600Y-10720100D02*
X14824000Y-10567700D01*
X14671600Y-10415300D01*
X14519200Y-10567700D01*
X14671600Y-10720100D01*
X15310000Y-11274400D02*
X15462400Y-11122000D01*
X15310000Y-10969600D01*
X15157600Y-11122000D01*
X15310000Y-11274400D01*
X10110000Y-7074400D02*
X10262400Y-6922000D01*
X10110000Y-6769600D01*
X9957600Y-6922000D01*
X10110000Y-7074400D01*
D12*
X9993928Y-11990214D02*
X9993928Y-11690214D01*
X10065357Y-11690214D01*
X10108214Y-11704500D01*
X10136786Y-11733071D01*
X10151071Y-11761643D01*
X10165357Y-11818786D01*
X10165357Y-11861643D01*
X10151071Y-11918786D01*
X10136786Y-11947357D01*
X10108214Y-11975929D01*
X10065357Y-11990214D01*
X9993928Y-11990214D01*
X10293928Y-11990214D02*
X10293928Y-11790214D01*
X10293928Y-11847357D02*
X10308214Y-11818786D01*
X10322500Y-11804500D01*
X10351071Y-11790214D01*
X10379643Y-11790214D01*
X10479643Y-11990214D02*
X10479643Y-11790214D01*
X10479643Y-11690214D02*
X10465357Y-11704500D01*
X10479643Y-11718786D01*
X10493928Y-11704500D01*
X10479643Y-11690214D01*
X10479643Y-11718786D01*
X10665357Y-11990214D02*
X10636786Y-11975929D01*
X10622500Y-11947357D01*
X10622500Y-11690214D01*
X10822500Y-11990214D02*
X10793928Y-11975929D01*
X10779643Y-11947357D01*
X10779643Y-11690214D01*
X11165357Y-11990214D02*
X11165357Y-11690214D01*
X11265357Y-11904500D01*
X11365357Y-11690214D01*
X11365357Y-11990214D01*
X11636786Y-11990214D02*
X11636786Y-11833071D01*
X11622500Y-11804500D01*
X11593928Y-11790214D01*
X11536786Y-11790214D01*
X11508214Y-11804500D01*
X11636786Y-11975929D02*
X11608214Y-11990214D01*
X11536786Y-11990214D01*
X11508214Y-11975929D01*
X11493928Y-11947357D01*
X11493928Y-11918786D01*
X11508214Y-11890214D01*
X11536786Y-11875929D01*
X11608214Y-11875929D01*
X11636786Y-11861643D01*
X11779643Y-11790214D02*
X11779643Y-12090214D01*
X11779643Y-11804500D02*
X11808214Y-11790214D01*
X11865357Y-11790214D01*
X11893928Y-11804500D01*
X11908214Y-11818786D01*
X11922500Y-11847357D01*
X11922500Y-11933071D01*
X11908214Y-11961643D01*
X11893928Y-11975929D01*
X11865357Y-11990214D01*
X11808214Y-11990214D01*
X11779643Y-11975929D01*
X12051071Y-11961643D02*
X12065357Y-11975929D01*
X12051071Y-11990214D01*
X12036786Y-11975929D01*
X12051071Y-11961643D01*
X12051071Y-11990214D01*
X12051071Y-11804500D02*
X12065357Y-11818786D01*
X12051071Y-11833071D01*
X12036786Y-11818786D01*
X12051071Y-11804500D01*
X12051071Y-11833071D01*
X9627500Y-12444500D02*
X9707500Y-12524500D01*
X9707500Y-12444500D02*
X9627500Y-12524500D01*
X10051071Y-12320214D02*
X10079643Y-12320214D01*
X10108214Y-12334500D01*
X10122500Y-12348786D01*
X10136786Y-12377357D01*
X10151071Y-12434500D01*
X10151071Y-12505929D01*
X10136786Y-12563071D01*
X10122500Y-12591643D01*
X10108214Y-12605929D01*
X10079643Y-12620214D01*
X10051071Y-12620214D01*
X10022500Y-12605929D01*
X10008214Y-12591643D01*
X9993928Y-12563071D01*
X9979643Y-12505929D01*
X9979643Y-12434500D01*
X9993928Y-12377357D01*
X10008214Y-12348786D01*
X10022500Y-12334500D01*
X10051071Y-12320214D01*
X10279643Y-12591643D02*
X10293928Y-12605929D01*
X10279643Y-12620214D01*
X10265357Y-12605929D01*
X10279643Y-12591643D01*
X10279643Y-12620214D01*
X10465357Y-12448786D02*
X10436786Y-12434500D01*
X10422500Y-12420214D01*
X10408214Y-12391643D01*
X10408214Y-12377357D01*
X10422500Y-12348786D01*
X10436786Y-12334500D01*
X10465357Y-12320214D01*
X10522500Y-12320214D01*
X10551071Y-12334500D01*
X10565357Y-12348786D01*
X10579643Y-12377357D01*
X10579643Y-12391643D01*
X10565357Y-12420214D01*
X10551071Y-12434500D01*
X10522500Y-12448786D01*
X10465357Y-12448786D01*
X10436786Y-12463071D01*
X10422500Y-12477357D01*
X10408214Y-12505929D01*
X10408214Y-12563071D01*
X10422500Y-12591643D01*
X10436786Y-12605929D01*
X10465357Y-12620214D01*
X10522500Y-12620214D01*
X10551071Y-12605929D01*
X10565357Y-12591643D01*
X10579643Y-12563071D01*
X10579643Y-12505929D01*
X10565357Y-12477357D01*
X10551071Y-12463071D01*
X10522500Y-12448786D01*
X10765357Y-12320214D02*
X10793928Y-12320214D01*
X10822500Y-12334500D01*
X10836786Y-12348786D01*
X10851071Y-12377357D01*
X10865357Y-12434500D01*
X10865357Y-12505929D01*
X10851071Y-12563071D01*
X10836786Y-12591643D01*
X10822500Y-12605929D01*
X10793928Y-12620214D01*
X10765357Y-12620214D01*
X10736786Y-12605929D01*
X10722500Y-12591643D01*
X10708214Y-12563071D01*
X10693928Y-12505929D01*
X10693928Y-12434500D01*
X10708214Y-12377357D01*
X10722500Y-12348786D01*
X10736786Y-12334500D01*
X10765357Y-12320214D01*
X10993928Y-12620214D02*
X10993928Y-12420214D01*
X10993928Y-12448786D02*
X11008214Y-12434500D01*
X11036786Y-12420214D01*
X11079643Y-12420214D01*
X11108214Y-12434500D01*
X11122500Y-12463071D01*
X11122500Y-12620214D01*
X11122500Y-12463071D02*
X11136786Y-12434500D01*
X11165357Y-12420214D01*
X11208214Y-12420214D01*
X11236786Y-12434500D01*
X11251071Y-12463071D01*
X11251071Y-12620214D01*
X11393928Y-12620214D02*
X11393928Y-12420214D01*
X11393928Y-12448786D02*
X11408214Y-12434500D01*
X11436786Y-12420214D01*
X11479643Y-12420214D01*
X11508214Y-12434500D01*
X11522500Y-12463071D01*
X11522500Y-12620214D01*
X11522500Y-12463071D02*
X11536786Y-12434500D01*
X11565357Y-12420214D01*
X11608214Y-12420214D01*
X11636786Y-12434500D01*
X11651071Y-12463071D01*
X11651071Y-12620214D01*
X12236786Y-12305929D02*
X11979643Y-12691643D01*
X12622500Y-12320214D02*
X12651071Y-12320214D01*
X12679643Y-12334500D01*
X12693928Y-12348786D01*
X12708214Y-12377357D01*
X12722500Y-12434500D01*
X12722500Y-12505929D01*
X12708214Y-12563071D01*
X12693928Y-12591643D01*
X12679643Y-12605929D01*
X12651071Y-12620214D01*
X12622500Y-12620214D01*
X12593928Y-12605929D01*
X12579643Y-12591643D01*
X12565357Y-12563071D01*
X12551071Y-12505929D01*
X12551071Y-12434500D01*
X12565357Y-12377357D01*
X12579643Y-12348786D01*
X12593928Y-12334500D01*
X12622500Y-12320214D01*
X12851071Y-12591643D02*
X12865357Y-12605929D01*
X12851071Y-12620214D01*
X12836786Y-12605929D01*
X12851071Y-12591643D01*
X12851071Y-12620214D01*
X13051071Y-12320214D02*
X13079643Y-12320214D01*
X13108214Y-12334500D01*
X13122500Y-12348786D01*
X13136786Y-12377357D01*
X13151071Y-12434500D01*
X13151071Y-12505929D01*
X13136786Y-12563071D01*
X13122500Y-12591643D01*
X13108214Y-12605929D01*
X13079643Y-12620214D01*
X13051071Y-12620214D01*
X13022500Y-12605929D01*
X13008214Y-12591643D01*
X12993928Y-12563071D01*
X12979643Y-12505929D01*
X12979643Y-12434500D01*
X12993928Y-12377357D01*
X13008214Y-12348786D01*
X13022500Y-12334500D01*
X13051071Y-12320214D01*
X13251071Y-12320214D02*
X13436786Y-12320214D01*
X13336786Y-12434500D01*
X13379643Y-12434500D01*
X13408214Y-12448786D01*
X13422500Y-12463071D01*
X13436786Y-12491643D01*
X13436786Y-12563071D01*
X13422500Y-12591643D01*
X13408214Y-12605929D01*
X13379643Y-12620214D01*
X13293928Y-12620214D01*
X13265357Y-12605929D01*
X13251071Y-12591643D01*
X13722500Y-12620214D02*
X13551071Y-12620214D01*
X13636786Y-12620214D02*
X13636786Y-12320214D01*
X13608214Y-12363071D01*
X13579643Y-12391643D01*
X13551071Y-12405929D01*
X13836786Y-12320214D02*
X13836786Y-12377357D01*
X13951071Y-12320214D02*
X13951071Y-12377357D01*
X14393928Y-12734500D02*
X14379643Y-12720214D01*
X14351071Y-12677357D01*
X14336786Y-12648786D01*
X14322500Y-12605929D01*
X14308214Y-12534500D01*
X14308214Y-12477357D01*
X14322500Y-12405929D01*
X14336786Y-12363071D01*
X14351071Y-12334500D01*
X14379643Y-12291643D01*
X14393928Y-12277357D01*
X14665357Y-12620214D02*
X14493928Y-12620214D01*
X14579643Y-12620214D02*
X14579643Y-12320214D01*
X14551071Y-12363071D01*
X14522500Y-12391643D01*
X14493928Y-12405929D01*
X14836786Y-12448786D02*
X14808214Y-12434500D01*
X14793928Y-12420214D01*
X14779643Y-12391643D01*
X14779643Y-12377357D01*
X14793928Y-12348786D01*
X14808214Y-12334500D01*
X14836786Y-12320214D01*
X14893928Y-12320214D01*
X14922500Y-12334500D01*
X14936786Y-12348786D01*
X14951071Y-12377357D01*
X14951071Y-12391643D01*
X14936786Y-12420214D01*
X14922500Y-12434500D01*
X14893928Y-12448786D01*
X14836786Y-12448786D01*
X14808214Y-12463071D01*
X14793928Y-12477357D01*
X14779643Y-12505929D01*
X14779643Y-12563071D01*
X14793928Y-12591643D01*
X14808214Y-12605929D01*
X14836786Y-12620214D01*
X14893928Y-12620214D01*
X14922500Y-12605929D01*
X14936786Y-12591643D01*
X14951071Y-12563071D01*
X14951071Y-12505929D01*
X14936786Y-12477357D01*
X14922500Y-12463071D01*
X14893928Y-12448786D01*
X15308214Y-12620214D02*
X15308214Y-12320214D01*
X15436786Y-12620214D02*
X15436786Y-12463071D01*
X15422500Y-12434500D01*
X15393928Y-12420214D01*
X15351071Y-12420214D01*
X15322500Y-12434500D01*
X15308214Y-12448786D01*
X15622500Y-12620214D02*
X15593928Y-12605929D01*
X15579643Y-12591643D01*
X15565357Y-12563071D01*
X15565357Y-12477357D01*
X15579643Y-12448786D01*
X15593928Y-12434500D01*
X15622500Y-12420214D01*
X15665357Y-12420214D01*
X15693928Y-12434500D01*
X15708214Y-12448786D01*
X15722500Y-12477357D01*
X15722500Y-12563071D01*
X15708214Y-12591643D01*
X15693928Y-12605929D01*
X15665357Y-12620214D01*
X15622500Y-12620214D01*
X15893928Y-12620214D02*
X15865357Y-12605929D01*
X15851071Y-12577357D01*
X15851071Y-12320214D01*
X16122500Y-12605929D02*
X16093928Y-12620214D01*
X16036786Y-12620214D01*
X16008214Y-12605929D01*
X15993928Y-12577357D01*
X15993928Y-12463071D01*
X16008214Y-12434500D01*
X16036786Y-12420214D01*
X16093928Y-12420214D01*
X16122500Y-12434500D01*
X16136786Y-12463071D01*
X16136786Y-12491643D01*
X15993928Y-12520214D01*
X16251071Y-12605929D02*
X16279643Y-12620214D01*
X16336786Y-12620214D01*
X16365357Y-12605929D01*
X16379643Y-12577357D01*
X16379643Y-12563071D01*
X16365357Y-12534500D01*
X16336786Y-12520214D01*
X16293928Y-12520214D01*
X16265357Y-12505929D01*
X16251071Y-12477357D01*
X16251071Y-12463071D01*
X16265357Y-12434500D01*
X16293928Y-12420214D01*
X16336786Y-12420214D01*
X16365357Y-12434500D01*
X16479643Y-12734500D02*
X16493928Y-12720214D01*
X16522500Y-12677357D01*
X16536786Y-12648786D01*
X16551071Y-12605929D01*
X16565357Y-12534500D01*
X16565357Y-12477357D01*
X16551071Y-12405929D01*
X16536786Y-12363071D01*
X16522500Y-12334500D01*
X16493928Y-12291643D01*
X16479643Y-12277357D01*
X9707500Y-12880500D02*
G75*
G03X9707500Y-12880500I-50000J0D01*
G01*
X10151071Y-13016214D02*
X9979643Y-13016214D01*
X10065357Y-13016214D02*
X10065357Y-12716214D01*
X10036786Y-12759071D01*
X10008214Y-12787643D01*
X9979643Y-12801929D01*
X10279643Y-12987643D02*
X10293928Y-13001929D01*
X10279643Y-13016214D01*
X10265357Y-13001929D01*
X10279643Y-12987643D01*
X10279643Y-13016214D01*
X10479643Y-12716214D02*
X10508214Y-12716214D01*
X10536786Y-12730500D01*
X10551071Y-12744786D01*
X10565357Y-12773357D01*
X10579643Y-12830500D01*
X10579643Y-12901929D01*
X10565357Y-12959071D01*
X10551071Y-12987643D01*
X10536786Y-13001929D01*
X10508214Y-13016214D01*
X10479643Y-13016214D01*
X10451071Y-13001929D01*
X10436786Y-12987643D01*
X10422500Y-12959071D01*
X10408214Y-12901929D01*
X10408214Y-12830500D01*
X10422500Y-12773357D01*
X10436786Y-12744786D01*
X10451071Y-12730500D01*
X10479643Y-12716214D01*
X10765357Y-12716214D02*
X10793928Y-12716214D01*
X10822500Y-12730500D01*
X10836786Y-12744786D01*
X10851071Y-12773357D01*
X10865357Y-12830500D01*
X10865357Y-12901929D01*
X10851071Y-12959071D01*
X10836786Y-12987643D01*
X10822500Y-13001929D01*
X10793928Y-13016214D01*
X10765357Y-13016214D01*
X10736786Y-13001929D01*
X10722500Y-12987643D01*
X10708214Y-12959071D01*
X10693928Y-12901929D01*
X10693928Y-12830500D01*
X10708214Y-12773357D01*
X10722500Y-12744786D01*
X10736786Y-12730500D01*
X10765357Y-12716214D01*
X10993928Y-13016214D02*
X10993928Y-12816214D01*
X10993928Y-12844786D02*
X11008214Y-12830500D01*
X11036786Y-12816214D01*
X11079643Y-12816214D01*
X11108214Y-12830500D01*
X11122500Y-12859071D01*
X11122500Y-13016214D01*
X11122500Y-12859071D02*
X11136786Y-12830500D01*
X11165357Y-12816214D01*
X11208214Y-12816214D01*
X11236786Y-12830500D01*
X11251071Y-12859071D01*
X11251071Y-13016214D01*
X11393928Y-13016214D02*
X11393928Y-12816214D01*
X11393928Y-12844786D02*
X11408214Y-12830500D01*
X11436786Y-12816214D01*
X11479643Y-12816214D01*
X11508214Y-12830500D01*
X11522500Y-12859071D01*
X11522500Y-13016214D01*
X11522500Y-12859071D02*
X11536786Y-12830500D01*
X11565357Y-12816214D01*
X11608214Y-12816214D01*
X11636786Y-12830500D01*
X11651071Y-12859071D01*
X11651071Y-13016214D01*
X12236786Y-12701929D02*
X11979643Y-13087643D01*
X12622500Y-12716214D02*
X12651071Y-12716214D01*
X12679643Y-12730500D01*
X12693928Y-12744786D01*
X12708214Y-12773357D01*
X12722500Y-12830500D01*
X12722500Y-12901929D01*
X12708214Y-12959071D01*
X12693928Y-12987643D01*
X12679643Y-13001929D01*
X12651071Y-13016214D01*
X12622500Y-13016214D01*
X12593928Y-13001929D01*
X12579643Y-12987643D01*
X12565357Y-12959071D01*
X12551071Y-12901929D01*
X12551071Y-12830500D01*
X12565357Y-12773357D01*
X12579643Y-12744786D01*
X12593928Y-12730500D01*
X12622500Y-12716214D01*
X12851071Y-12987643D02*
X12865357Y-13001929D01*
X12851071Y-13016214D01*
X12836786Y-13001929D01*
X12851071Y-12987643D01*
X12851071Y-13016214D01*
X13051071Y-12716214D02*
X13079643Y-12716214D01*
X13108214Y-12730500D01*
X13122500Y-12744786D01*
X13136786Y-12773357D01*
X13151071Y-12830500D01*
X13151071Y-12901929D01*
X13136786Y-12959071D01*
X13122500Y-12987643D01*
X13108214Y-13001929D01*
X13079643Y-13016214D01*
X13051071Y-13016214D01*
X13022500Y-13001929D01*
X13008214Y-12987643D01*
X12993928Y-12959071D01*
X12979643Y-12901929D01*
X12979643Y-12830500D01*
X12993928Y-12773357D01*
X13008214Y-12744786D01*
X13022500Y-12730500D01*
X13051071Y-12716214D01*
X13251071Y-12716214D02*
X13436786Y-12716214D01*
X13336786Y-12830500D01*
X13379643Y-12830500D01*
X13408214Y-12844786D01*
X13422500Y-12859071D01*
X13436786Y-12887643D01*
X13436786Y-12959071D01*
X13422500Y-12987643D01*
X13408214Y-13001929D01*
X13379643Y-13016214D01*
X13293928Y-13016214D01*
X13265357Y-13001929D01*
X13251071Y-12987643D01*
X13579643Y-13016214D02*
X13636786Y-13016214D01*
X13665357Y-13001929D01*
X13679643Y-12987643D01*
X13708214Y-12944786D01*
X13722500Y-12887643D01*
X13722500Y-12773357D01*
X13708214Y-12744786D01*
X13693928Y-12730500D01*
X13665357Y-12716214D01*
X13608214Y-12716214D01*
X13579643Y-12730500D01*
X13565357Y-12744786D01*
X13551071Y-12773357D01*
X13551071Y-12844786D01*
X13565357Y-12873357D01*
X13579643Y-12887643D01*
X13608214Y-12901929D01*
X13665357Y-12901929D01*
X13693928Y-12887643D01*
X13708214Y-12873357D01*
X13722500Y-12844786D01*
X13836786Y-12716214D02*
X13836786Y-12773357D01*
X13951071Y-12716214D02*
X13951071Y-12773357D01*
X14393928Y-13130500D02*
X14379643Y-13116214D01*
X14351071Y-13073357D01*
X14336786Y-13044786D01*
X14322500Y-13001929D01*
X14308214Y-12930500D01*
X14308214Y-12873357D01*
X14322500Y-12801929D01*
X14336786Y-12759071D01*
X14351071Y-12730500D01*
X14379643Y-12687643D01*
X14393928Y-12673357D01*
X14479643Y-12716214D02*
X14679643Y-12716214D01*
X14551071Y-13016214D01*
X15022500Y-13016214D02*
X15022500Y-12716214D01*
X15151071Y-13016214D02*
X15151071Y-12859071D01*
X15136786Y-12830500D01*
X15108214Y-12816214D01*
X15065357Y-12816214D01*
X15036786Y-12830500D01*
X15022500Y-12844786D01*
X15336786Y-13016214D02*
X15308214Y-13001929D01*
X15293928Y-12987643D01*
X15279643Y-12959071D01*
X15279643Y-12873357D01*
X15293928Y-12844786D01*
X15308214Y-12830500D01*
X15336786Y-12816214D01*
X15379643Y-12816214D01*
X15408214Y-12830500D01*
X15422500Y-12844786D01*
X15436786Y-12873357D01*
X15436786Y-12959071D01*
X15422500Y-12987643D01*
X15408214Y-13001929D01*
X15379643Y-13016214D01*
X15336786Y-13016214D01*
X15608214Y-13016214D02*
X15579643Y-13001929D01*
X15565357Y-12973357D01*
X15565357Y-12716214D01*
X15836786Y-13001929D02*
X15808214Y-13016214D01*
X15751071Y-13016214D01*
X15722500Y-13001929D01*
X15708214Y-12973357D01*
X15708214Y-12859071D01*
X15722500Y-12830500D01*
X15751071Y-12816214D01*
X15808214Y-12816214D01*
X15836786Y-12830500D01*
X15851071Y-12859071D01*
X15851071Y-12887643D01*
X15708214Y-12916214D01*
X15965357Y-13001929D02*
X15993928Y-13016214D01*
X16051071Y-13016214D01*
X16079643Y-13001929D01*
X16093928Y-12973357D01*
X16093928Y-12959071D01*
X16079643Y-12930500D01*
X16051071Y-12916214D01*
X16008214Y-12916214D01*
X15979643Y-12901929D01*
X15965357Y-12873357D01*
X15965357Y-12859071D01*
X15979643Y-12830500D01*
X16008214Y-12816214D01*
X16051071Y-12816214D01*
X16079643Y-12830500D01*
X16193928Y-13130500D02*
X16208214Y-13116214D01*
X16236786Y-13073357D01*
X16251071Y-13044786D01*
X16265357Y-13001929D01*
X16279643Y-12930500D01*
X16279643Y-12873357D01*
X16265357Y-12801929D01*
X16251071Y-12759071D01*
X16236786Y-12730500D01*
X16208214Y-12687643D01*
X16193928Y-12673357D01*
X9652500Y-13221500D02*
X9652500Y-13331500D01*
X9597500Y-13276500D02*
X9707500Y-13276500D01*
X10151071Y-13412214D02*
X9979643Y-13412214D01*
X10065357Y-13412214D02*
X10065357Y-13112214D01*
X10036786Y-13155071D01*
X10008214Y-13183643D01*
X9979643Y-13197929D01*
X10279643Y-13383643D02*
X10293928Y-13397929D01*
X10279643Y-13412214D01*
X10265357Y-13397929D01*
X10279643Y-13383643D01*
X10279643Y-13412214D01*
X10579643Y-13412214D02*
X10408214Y-13412214D01*
X10493928Y-13412214D02*
X10493928Y-13112214D01*
X10465357Y-13155071D01*
X10436786Y-13183643D01*
X10408214Y-13197929D01*
X10765357Y-13112214D02*
X10793928Y-13112214D01*
X10822500Y-13126500D01*
X10836786Y-13140786D01*
X10851071Y-13169357D01*
X10865357Y-13226500D01*
X10865357Y-13297929D01*
X10851071Y-13355071D01*
X10836786Y-13383643D01*
X10822500Y-13397929D01*
X10793928Y-13412214D01*
X10765357Y-13412214D01*
X10736786Y-13397929D01*
X10722500Y-13383643D01*
X10708214Y-13355071D01*
X10693928Y-13297929D01*
X10693928Y-13226500D01*
X10708214Y-13169357D01*
X10722500Y-13140786D01*
X10736786Y-13126500D01*
X10765357Y-13112214D01*
X10993928Y-13412214D02*
X10993928Y-13212214D01*
X10993928Y-13240786D02*
X11008214Y-13226500D01*
X11036786Y-13212214D01*
X11079643Y-13212214D01*
X11108214Y-13226500D01*
X11122500Y-13255071D01*
X11122500Y-13412214D01*
X11122500Y-13255071D02*
X11136786Y-13226500D01*
X11165357Y-13212214D01*
X11208214Y-13212214D01*
X11236786Y-13226500D01*
X11251071Y-13255071D01*
X11251071Y-13412214D01*
X11393928Y-13412214D02*
X11393928Y-13212214D01*
X11393928Y-13240786D02*
X11408214Y-13226500D01*
X11436786Y-13212214D01*
X11479643Y-13212214D01*
X11508214Y-13226500D01*
X11522500Y-13255071D01*
X11522500Y-13412214D01*
X11522500Y-13255071D02*
X11536786Y-13226500D01*
X11565357Y-13212214D01*
X11608214Y-13212214D01*
X11636786Y-13226500D01*
X11651071Y-13255071D01*
X11651071Y-13412214D01*
X12236786Y-13097929D02*
X11979643Y-13483643D01*
X12622500Y-13112214D02*
X12651071Y-13112214D01*
X12679643Y-13126500D01*
X12693928Y-13140786D01*
X12708214Y-13169357D01*
X12722500Y-13226500D01*
X12722500Y-13297929D01*
X12708214Y-13355071D01*
X12693928Y-13383643D01*
X12679643Y-13397929D01*
X12651071Y-13412214D01*
X12622500Y-13412214D01*
X12593928Y-13397929D01*
X12579643Y-13383643D01*
X12565357Y-13355071D01*
X12551071Y-13297929D01*
X12551071Y-13226500D01*
X12565357Y-13169357D01*
X12579643Y-13140786D01*
X12593928Y-13126500D01*
X12622500Y-13112214D01*
X12851071Y-13383643D02*
X12865357Y-13397929D01*
X12851071Y-13412214D01*
X12836786Y-13397929D01*
X12851071Y-13383643D01*
X12851071Y-13412214D01*
X13051071Y-13112214D02*
X13079643Y-13112214D01*
X13108214Y-13126500D01*
X13122500Y-13140786D01*
X13136786Y-13169357D01*
X13151071Y-13226500D01*
X13151071Y-13297929D01*
X13136786Y-13355071D01*
X13122500Y-13383643D01*
X13108214Y-13397929D01*
X13079643Y-13412214D01*
X13051071Y-13412214D01*
X13022500Y-13397929D01*
X13008214Y-13383643D01*
X12993928Y-13355071D01*
X12979643Y-13297929D01*
X12979643Y-13226500D01*
X12993928Y-13169357D01*
X13008214Y-13140786D01*
X13022500Y-13126500D01*
X13051071Y-13112214D01*
X13408214Y-13212214D02*
X13408214Y-13412214D01*
X13336786Y-13097929D02*
X13265357Y-13312214D01*
X13451071Y-13312214D01*
X13536786Y-13112214D02*
X13722500Y-13112214D01*
X13622500Y-13226500D01*
X13665357Y-13226500D01*
X13693928Y-13240786D01*
X13708214Y-13255071D01*
X13722500Y-13283643D01*
X13722500Y-13355071D01*
X13708214Y-13383643D01*
X13693928Y-13397929D01*
X13665357Y-13412214D01*
X13579643Y-13412214D01*
X13551071Y-13397929D01*
X13536786Y-13383643D01*
X13836786Y-13112214D02*
X13836786Y-13169357D01*
X13951071Y-13112214D02*
X13951071Y-13169357D01*
X14393928Y-13526500D02*
X14379643Y-13512214D01*
X14351071Y-13469357D01*
X14336786Y-13440786D01*
X14322500Y-13397929D01*
X14308214Y-13326500D01*
X14308214Y-13269357D01*
X14322500Y-13197929D01*
X14336786Y-13155071D01*
X14351071Y-13126500D01*
X14379643Y-13083643D01*
X14393928Y-13069357D01*
X14636786Y-13212214D02*
X14636786Y-13412214D01*
X14565357Y-13097929D02*
X14493928Y-13312214D01*
X14679643Y-13312214D01*
X15022500Y-13412214D02*
X15022500Y-13112214D01*
X15151071Y-13412214D02*
X15151071Y-13255071D01*
X15136786Y-13226500D01*
X15108214Y-13212214D01*
X15065357Y-13212214D01*
X15036786Y-13226500D01*
X15022500Y-13240786D01*
X15336786Y-13412214D02*
X15308214Y-13397929D01*
X15293928Y-13383643D01*
X15279643Y-13355071D01*
X15279643Y-13269357D01*
X15293928Y-13240786D01*
X15308214Y-13226500D01*
X15336786Y-13212214D01*
X15379643Y-13212214D01*
X15408214Y-13226500D01*
X15422500Y-13240786D01*
X15436786Y-13269357D01*
X15436786Y-13355071D01*
X15422500Y-13383643D01*
X15408214Y-13397929D01*
X15379643Y-13412214D01*
X15336786Y-13412214D01*
X15608214Y-13412214D02*
X15579643Y-13397929D01*
X15565357Y-13369357D01*
X15565357Y-13112214D01*
X15836786Y-13397929D02*
X15808214Y-13412214D01*
X15751071Y-13412214D01*
X15722500Y-13397929D01*
X15708214Y-13369357D01*
X15708214Y-13255071D01*
X15722500Y-13226500D01*
X15751071Y-13212214D01*
X15808214Y-13212214D01*
X15836786Y-13226500D01*
X15851071Y-13255071D01*
X15851071Y-13283643D01*
X15708214Y-13312214D01*
X15965357Y-13397929D02*
X15993928Y-13412214D01*
X16051071Y-13412214D01*
X16079643Y-13397929D01*
X16093928Y-13369357D01*
X16093928Y-13355071D01*
X16079643Y-13326500D01*
X16051071Y-13312214D01*
X16008214Y-13312214D01*
X15979643Y-13297929D01*
X15965357Y-13269357D01*
X15965357Y-13255071D01*
X15979643Y-13226500D01*
X16008214Y-13212214D01*
X16051071Y-13212214D01*
X16079643Y-13226500D01*
X16193928Y-13526500D02*
X16208214Y-13512214D01*
X16236786Y-13469357D01*
X16251071Y-13440786D01*
X16265357Y-13397929D01*
X16279643Y-13326500D01*
X16279643Y-13269357D01*
X16265357Y-13197929D01*
X16251071Y-13155071D01*
X16236786Y-13126500D01*
X16208214Y-13083643D01*
X16193928Y-13069357D01*
X9691245Y-13711745D02*
X9691245Y-13633255D01*
X9612755Y-13633255D01*
X9612755Y-13711745D01*
X9691245Y-13711745D01*
X10151071Y-13808214D02*
X9979643Y-13808214D01*
X10065357Y-13808214D02*
X10065357Y-13508214D01*
X10036786Y-13551071D01*
X10008214Y-13579643D01*
X9979643Y-13593929D01*
X10279643Y-13779643D02*
X10293928Y-13793929D01*
X10279643Y-13808214D01*
X10265357Y-13793929D01*
X10279643Y-13779643D01*
X10279643Y-13808214D01*
X10579643Y-13808214D02*
X10408214Y-13808214D01*
X10493928Y-13808214D02*
X10493928Y-13508214D01*
X10465357Y-13551071D01*
X10436786Y-13579643D01*
X10408214Y-13593929D01*
X10865357Y-13808214D02*
X10693928Y-13808214D01*
X10779643Y-13808214D02*
X10779643Y-13508214D01*
X10751071Y-13551071D01*
X10722500Y-13579643D01*
X10693928Y-13593929D01*
X10993928Y-13808214D02*
X10993928Y-13608214D01*
X10993928Y-13636786D02*
X11008214Y-13622500D01*
X11036786Y-13608214D01*
X11079643Y-13608214D01*
X11108214Y-13622500D01*
X11122500Y-13651071D01*
X11122500Y-13808214D01*
X11122500Y-13651071D02*
X11136786Y-13622500D01*
X11165357Y-13608214D01*
X11208214Y-13608214D01*
X11236786Y-13622500D01*
X11251071Y-13651071D01*
X11251071Y-13808214D01*
X11393928Y-13808214D02*
X11393928Y-13608214D01*
X11393928Y-13636786D02*
X11408214Y-13622500D01*
X11436786Y-13608214D01*
X11479643Y-13608214D01*
X11508214Y-13622500D01*
X11522500Y-13651071D01*
X11522500Y-13808214D01*
X11522500Y-13651071D02*
X11536786Y-13622500D01*
X11565357Y-13608214D01*
X11608214Y-13608214D01*
X11636786Y-13622500D01*
X11651071Y-13651071D01*
X11651071Y-13808214D01*
X12236786Y-13493929D02*
X11979643Y-13879643D01*
X12622500Y-13508214D02*
X12651071Y-13508214D01*
X12679643Y-13522500D01*
X12693928Y-13536786D01*
X12708214Y-13565357D01*
X12722500Y-13622500D01*
X12722500Y-13693929D01*
X12708214Y-13751071D01*
X12693928Y-13779643D01*
X12679643Y-13793929D01*
X12651071Y-13808214D01*
X12622500Y-13808214D01*
X12593928Y-13793929D01*
X12579643Y-13779643D01*
X12565357Y-13751071D01*
X12551071Y-13693929D01*
X12551071Y-13622500D01*
X12565357Y-13565357D01*
X12579643Y-13536786D01*
X12593928Y-13522500D01*
X12622500Y-13508214D01*
X12851071Y-13779643D02*
X12865357Y-13793929D01*
X12851071Y-13808214D01*
X12836786Y-13793929D01*
X12851071Y-13779643D01*
X12851071Y-13808214D01*
X13051071Y-13508214D02*
X13079643Y-13508214D01*
X13108214Y-13522500D01*
X13122500Y-13536786D01*
X13136786Y-13565357D01*
X13151071Y-13622500D01*
X13151071Y-13693929D01*
X13136786Y-13751071D01*
X13122500Y-13779643D01*
X13108214Y-13793929D01*
X13079643Y-13808214D01*
X13051071Y-13808214D01*
X13022500Y-13793929D01*
X13008214Y-13779643D01*
X12993928Y-13751071D01*
X12979643Y-13693929D01*
X12979643Y-13622500D01*
X12993928Y-13565357D01*
X13008214Y-13536786D01*
X13022500Y-13522500D01*
X13051071Y-13508214D01*
X13408214Y-13608214D02*
X13408214Y-13808214D01*
X13336786Y-13493929D02*
X13265357Y-13708214D01*
X13451071Y-13708214D01*
X13693928Y-13608214D02*
X13693928Y-13808214D01*
X13622500Y-13493929D02*
X13551071Y-13708214D01*
X13736786Y-13708214D01*
X13836786Y-13508214D02*
X13836786Y-13565357D01*
X13951071Y-13508214D02*
X13951071Y-13565357D01*
X14393928Y-13922500D02*
X14379643Y-13908214D01*
X14351071Y-13865357D01*
X14336786Y-13836786D01*
X14322500Y-13793929D01*
X14308214Y-13722500D01*
X14308214Y-13665357D01*
X14322500Y-13593929D01*
X14336786Y-13551071D01*
X14351071Y-13522500D01*
X14379643Y-13479643D01*
X14393928Y-13465357D01*
X14665357Y-13808214D02*
X14493928Y-13808214D01*
X14579643Y-13808214D02*
X14579643Y-13508214D01*
X14551071Y-13551071D01*
X14522500Y-13579643D01*
X14493928Y-13593929D01*
X14922500Y-13508214D02*
X14865357Y-13508214D01*
X14836786Y-13522500D01*
X14822500Y-13536786D01*
X14793928Y-13579643D01*
X14779643Y-13636786D01*
X14779643Y-13751071D01*
X14793928Y-13779643D01*
X14808214Y-13793929D01*
X14836786Y-13808214D01*
X14893928Y-13808214D01*
X14922500Y-13793929D01*
X14936786Y-13779643D01*
X14951071Y-13751071D01*
X14951071Y-13679643D01*
X14936786Y-13651071D01*
X14922500Y-13636786D01*
X14893928Y-13622500D01*
X14836786Y-13622500D01*
X14808214Y-13636786D01*
X14793928Y-13651071D01*
X14779643Y-13679643D01*
X15308214Y-13808214D02*
X15308214Y-13508214D01*
X15436786Y-13808214D02*
X15436786Y-13651071D01*
X15422500Y-13622500D01*
X15393928Y-13608214D01*
X15351071Y-13608214D01*
X15322500Y-13622500D01*
X15308214Y-13636786D01*
X15622500Y-13808214D02*
X15593928Y-13793929D01*
X15579643Y-13779643D01*
X15565357Y-13751071D01*
X15565357Y-13665357D01*
X15579643Y-13636786D01*
X15593928Y-13622500D01*
X15622500Y-13608214D01*
X15665357Y-13608214D01*
X15693928Y-13622500D01*
X15708214Y-13636786D01*
X15722500Y-13665357D01*
X15722500Y-13751071D01*
X15708214Y-13779643D01*
X15693928Y-13793929D01*
X15665357Y-13808214D01*
X15622500Y-13808214D01*
X15893928Y-13808214D02*
X15865357Y-13793929D01*
X15851071Y-13765357D01*
X15851071Y-13508214D01*
X16122500Y-13793929D02*
X16093928Y-13808214D01*
X16036786Y-13808214D01*
X16008214Y-13793929D01*
X15993928Y-13765357D01*
X15993928Y-13651071D01*
X16008214Y-13622500D01*
X16036786Y-13608214D01*
X16093928Y-13608214D01*
X16122500Y-13622500D01*
X16136786Y-13651071D01*
X16136786Y-13679643D01*
X15993928Y-13708214D01*
X16251071Y-13793929D02*
X16279643Y-13808214D01*
X16336786Y-13808214D01*
X16365357Y-13793929D01*
X16379643Y-13765357D01*
X16379643Y-13751071D01*
X16365357Y-13722500D01*
X16336786Y-13708214D01*
X16293928Y-13708214D01*
X16265357Y-13693929D01*
X16251071Y-13665357D01*
X16251071Y-13651071D01*
X16265357Y-13622500D01*
X16293928Y-13608214D01*
X16336786Y-13608214D01*
X16365357Y-13622500D01*
X16479643Y-13922500D02*
X16493928Y-13908214D01*
X16522500Y-13865357D01*
X16536786Y-13836786D01*
X16551071Y-13793929D01*
X16565357Y-13722500D01*
X16565357Y-13665357D01*
X16551071Y-13593929D01*
X16536786Y-13551071D01*
X16522500Y-13522500D01*
X16493928Y-13479643D01*
X16479643Y-13465357D01*
X9555100Y-14220900D02*
X9707500Y-14068500D01*
X9555100Y-13916100D01*
X9402700Y-14068500D01*
X9555100Y-14220900D01*
X9965357Y-13904214D02*
X10151071Y-13904214D01*
X10051071Y-14018500D01*
X10093928Y-14018500D01*
X10122500Y-14032786D01*
X10136786Y-14047071D01*
X10151071Y-14075643D01*
X10151071Y-14147071D01*
X10136786Y-14175643D01*
X10122500Y-14189929D01*
X10093928Y-14204214D01*
X10008214Y-14204214D01*
X9979643Y-14189929D01*
X9965357Y-14175643D01*
X10279643Y-14175643D02*
X10293928Y-14189929D01*
X10279643Y-14204214D01*
X10265357Y-14189929D01*
X10279643Y-14175643D01*
X10279643Y-14204214D01*
X10479643Y-13904214D02*
X10508214Y-13904214D01*
X10536786Y-13918500D01*
X10551071Y-13932786D01*
X10565357Y-13961357D01*
X10579643Y-14018500D01*
X10579643Y-14089929D01*
X10565357Y-14147071D01*
X10551071Y-14175643D01*
X10536786Y-14189929D01*
X10508214Y-14204214D01*
X10479643Y-14204214D01*
X10451071Y-14189929D01*
X10436786Y-14175643D01*
X10422500Y-14147071D01*
X10408214Y-14089929D01*
X10408214Y-14018500D01*
X10422500Y-13961357D01*
X10436786Y-13932786D01*
X10451071Y-13918500D01*
X10479643Y-13904214D01*
X10851071Y-13904214D02*
X10708214Y-13904214D01*
X10693928Y-14047071D01*
X10708214Y-14032786D01*
X10736786Y-14018500D01*
X10808214Y-14018500D01*
X10836786Y-14032786D01*
X10851071Y-14047071D01*
X10865357Y-14075643D01*
X10865357Y-14147071D01*
X10851071Y-14175643D01*
X10836786Y-14189929D01*
X10808214Y-14204214D01*
X10736786Y-14204214D01*
X10708214Y-14189929D01*
X10693928Y-14175643D01*
X10993928Y-14204214D02*
X10993928Y-14004214D01*
X10993928Y-14032786D02*
X11008214Y-14018500D01*
X11036786Y-14004214D01*
X11079643Y-14004214D01*
X11108214Y-14018500D01*
X11122500Y-14047071D01*
X11122500Y-14204214D01*
X11122500Y-14047071D02*
X11136786Y-14018500D01*
X11165357Y-14004214D01*
X11208214Y-14004214D01*
X11236786Y-14018500D01*
X11251071Y-14047071D01*
X11251071Y-14204214D01*
X11393928Y-14204214D02*
X11393928Y-14004214D01*
X11393928Y-14032786D02*
X11408214Y-14018500D01*
X11436786Y-14004214D01*
X11479643Y-14004214D01*
X11508214Y-14018500D01*
X11522500Y-14047071D01*
X11522500Y-14204214D01*
X11522500Y-14047071D02*
X11536786Y-14018500D01*
X11565357Y-14004214D01*
X11608214Y-14004214D01*
X11636786Y-14018500D01*
X11651071Y-14047071D01*
X11651071Y-14204214D01*
X12236786Y-13889929D02*
X11979643Y-14275643D01*
X12622500Y-13904214D02*
X12651071Y-13904214D01*
X12679643Y-13918500D01*
X12693928Y-13932786D01*
X12708214Y-13961357D01*
X12722500Y-14018500D01*
X12722500Y-14089929D01*
X12708214Y-14147071D01*
X12693928Y-14175643D01*
X12679643Y-14189929D01*
X12651071Y-14204214D01*
X12622500Y-14204214D01*
X12593928Y-14189929D01*
X12579643Y-14175643D01*
X12565357Y-14147071D01*
X12551071Y-14089929D01*
X12551071Y-14018500D01*
X12565357Y-13961357D01*
X12579643Y-13932786D01*
X12593928Y-13918500D01*
X12622500Y-13904214D01*
X12851071Y-14175643D02*
X12865357Y-14189929D01*
X12851071Y-14204214D01*
X12836786Y-14189929D01*
X12851071Y-14175643D01*
X12851071Y-14204214D01*
X13151071Y-14204214D02*
X12979643Y-14204214D01*
X13065357Y-14204214D02*
X13065357Y-13904214D01*
X13036786Y-13947071D01*
X13008214Y-13975643D01*
X12979643Y-13989929D01*
X13265357Y-13932786D02*
X13279643Y-13918500D01*
X13308214Y-13904214D01*
X13379643Y-13904214D01*
X13408214Y-13918500D01*
X13422500Y-13932786D01*
X13436786Y-13961357D01*
X13436786Y-13989929D01*
X13422500Y-14032786D01*
X13251071Y-14204214D01*
X13436786Y-14204214D01*
X13622500Y-13904214D02*
X13651071Y-13904214D01*
X13679643Y-13918500D01*
X13693928Y-13932786D01*
X13708214Y-13961357D01*
X13722500Y-14018500D01*
X13722500Y-14089929D01*
X13708214Y-14147071D01*
X13693928Y-14175643D01*
X13679643Y-14189929D01*
X13651071Y-14204214D01*
X13622500Y-14204214D01*
X13593928Y-14189929D01*
X13579643Y-14175643D01*
X13565357Y-14147071D01*
X13551071Y-14089929D01*
X13551071Y-14018500D01*
X13565357Y-13961357D01*
X13579643Y-13932786D01*
X13593928Y-13918500D01*
X13622500Y-13904214D01*
X13836786Y-13904214D02*
X13836786Y-13961357D01*
X13951071Y-13904214D02*
X13951071Y-13961357D01*
X14393928Y-14318500D02*
X14379643Y-14304214D01*
X14351071Y-14261357D01*
X14336786Y-14232786D01*
X14322500Y-14189929D01*
X14308214Y-14118500D01*
X14308214Y-14061357D01*
X14322500Y-13989929D01*
X14336786Y-13947071D01*
X14351071Y-13918500D01*
X14379643Y-13875643D01*
X14393928Y-13861357D01*
X14551071Y-14032786D02*
X14522500Y-14018500D01*
X14508214Y-14004214D01*
X14493928Y-13975643D01*
X14493928Y-13961357D01*
X14508214Y-13932786D01*
X14522500Y-13918500D01*
X14551071Y-13904214D01*
X14608214Y-13904214D01*
X14636786Y-13918500D01*
X14651071Y-13932786D01*
X14665357Y-13961357D01*
X14665357Y-13975643D01*
X14651071Y-14004214D01*
X14636786Y-14018500D01*
X14608214Y-14032786D01*
X14551071Y-14032786D01*
X14522500Y-14047071D01*
X14508214Y-14061357D01*
X14493928Y-14089929D01*
X14493928Y-14147071D01*
X14508214Y-14175643D01*
X14522500Y-14189929D01*
X14551071Y-14204214D01*
X14608214Y-14204214D01*
X14636786Y-14189929D01*
X14651071Y-14175643D01*
X14665357Y-14147071D01*
X14665357Y-14089929D01*
X14651071Y-14061357D01*
X14636786Y-14047071D01*
X14608214Y-14032786D01*
X15022500Y-14204214D02*
X15022500Y-13904214D01*
X15151071Y-14204214D02*
X15151071Y-14047071D01*
X15136786Y-14018500D01*
X15108214Y-14004214D01*
X15065357Y-14004214D01*
X15036786Y-14018500D01*
X15022500Y-14032786D01*
X15336786Y-14204214D02*
X15308214Y-14189929D01*
X15293928Y-14175643D01*
X15279643Y-14147071D01*
X15279643Y-14061357D01*
X15293928Y-14032786D01*
X15308214Y-14018500D01*
X15336786Y-14004214D01*
X15379643Y-14004214D01*
X15408214Y-14018500D01*
X15422500Y-14032786D01*
X15436786Y-14061357D01*
X15436786Y-14147071D01*
X15422500Y-14175643D01*
X15408214Y-14189929D01*
X15379643Y-14204214D01*
X15336786Y-14204214D01*
X15608214Y-14204214D02*
X15579643Y-14189929D01*
X15565357Y-14161357D01*
X15565357Y-13904214D01*
X15836786Y-14189929D02*
X15808214Y-14204214D01*
X15751071Y-14204214D01*
X15722500Y-14189929D01*
X15708214Y-14161357D01*
X15708214Y-14047071D01*
X15722500Y-14018500D01*
X15751071Y-14004214D01*
X15808214Y-14004214D01*
X15836786Y-14018500D01*
X15851071Y-14047071D01*
X15851071Y-14075643D01*
X15708214Y-14104214D01*
X15965357Y-14189929D02*
X15993928Y-14204214D01*
X16051071Y-14204214D01*
X16079643Y-14189929D01*
X16093928Y-14161357D01*
X16093928Y-14147071D01*
X16079643Y-14118500D01*
X16051071Y-14104214D01*
X16008214Y-14104214D01*
X15979643Y-14089929D01*
X15965357Y-14061357D01*
X15965357Y-14047071D01*
X15979643Y-14018500D01*
X16008214Y-14004214D01*
X16051071Y-14004214D01*
X16079643Y-14018500D01*
X16193928Y-14318500D02*
X16208214Y-14304214D01*
X16236786Y-14261357D01*
X16251071Y-14232786D01*
X16265357Y-14189929D01*
X16279643Y-14118500D01*
X16279643Y-14061357D01*
X16265357Y-13989929D01*
X16251071Y-13947071D01*
X16236786Y-13918500D01*
X16208214Y-13875643D01*
X16193928Y-13861357D01*
M02*
