G04 #@! TF.GenerationSoftware,KiCad,Pcbnew,(5.1.2-1)-1*
G04 #@! TF.CreationDate,2019-05-09T16:52:54-07:00*
G04 #@! TF.ProjectId,OfficeClock,4f666669-6365-4436-9c6f-636b2e6b6963,rev?*
G04 #@! TF.SameCoordinates,Original*
G04 #@! TF.FileFunction,Copper,L1,Top*
G04 #@! TF.FilePolarity,Positive*
%FSLAX46Y46*%
G04 Gerber Fmt 4.6, Leading zero omitted, Abs format (unit mm)*
G04 Created by KiCad (PCBNEW (5.1.2-1)-1) date 2019-05-09 16:52:54*
%MOMM*%
%LPD*%
G04 APERTURE LIST*
%ADD10C,0.050000*%
%ADD11C,5.000000*%
%ADD12R,1.700000X1.700000*%
%ADD13O,1.700000X1.700000*%
%ADD14R,2.400000X1.600000*%
%ADD15O,2.400000X1.600000*%
%ADD16C,4.064000*%
%ADD17C,7.000000*%
%ADD18C,2.000000*%
%ADD19R,2.000000X2.000000*%
%ADD20C,1.610000*%
%ADD21C,1.600000*%
%ADD22O,1.600000X1.600000*%
%ADD23C,0.250000*%
%ADD24C,0.254000*%
G04 APERTURE END LIST*
D10*
X97100000Y-115220000D02*
X97100000Y-65220000D01*
X157100000Y-115220000D02*
X97100000Y-115220000D01*
X157100000Y-65220000D02*
X157100000Y-115220000D01*
X97100000Y-65220000D02*
X157100000Y-65220000D01*
D11*
X146716000Y-105677000D03*
X146716000Y-85677000D03*
X114716000Y-85677000D03*
X114716000Y-105677000D03*
D12*
X102701000Y-90692000D03*
D13*
X102701000Y-93232000D03*
X102701000Y-95772000D03*
X102701000Y-98312000D03*
X102701000Y-100852000D03*
D14*
X126100000Y-70220000D03*
D15*
X136260000Y-88000000D03*
X126100000Y-72760000D03*
X136260000Y-85460000D03*
X126100000Y-75300000D03*
X136260000Y-82920000D03*
X126100000Y-77840000D03*
X136260000Y-80380000D03*
X126100000Y-80380000D03*
X136260000Y-77840000D03*
X126100000Y-82920000D03*
X136260000Y-75300000D03*
X126100000Y-85460000D03*
X136260000Y-72760000D03*
X126100000Y-88000000D03*
X136260000Y-70220000D03*
D16*
X153100000Y-69220000D03*
D17*
X153100000Y-111220000D03*
D16*
X101100000Y-111220000D03*
X101100000Y-69220000D03*
D18*
X106100000Y-107760000D03*
D19*
X106100000Y-105220000D03*
D20*
X142530000Y-110110000D03*
X142530000Y-107570000D03*
X142530000Y-105030000D03*
X142530000Y-102490000D03*
X142530000Y-99950000D03*
X142530000Y-97410000D03*
X142530000Y-94870000D03*
X142530000Y-92330000D03*
X119670000Y-92330000D03*
X119670000Y-94870000D03*
X119670000Y-97410000D03*
X119670000Y-99950000D03*
X119670000Y-102490000D03*
X119670000Y-105030000D03*
X119670000Y-107570000D03*
X119670000Y-110110000D03*
D18*
X102100000Y-77220000D03*
X107100000Y-77220000D03*
X107100000Y-82220000D03*
X102100000Y-82220000D03*
D21*
X116100000Y-112220000D03*
D22*
X105940000Y-112220000D03*
D23*
X106100000Y-105220000D02*
X108100000Y-105220000D01*
X108100000Y-105220000D02*
X110100000Y-107220000D01*
X110100000Y-108060000D02*
X105940000Y-112220000D01*
X110100000Y-107220000D02*
X110100000Y-108060000D01*
X110100000Y-108060000D02*
X110100000Y-108220000D01*
X110100000Y-108220000D02*
X111100000Y-109220000D01*
X118020000Y-109220000D02*
X119670000Y-107570000D01*
X111100000Y-109220000D02*
X118020000Y-109220000D01*
X115000000Y-97000000D02*
X119670000Y-92330000D01*
X115000000Y-101020000D02*
X115000000Y-97000000D01*
X118100000Y-104120000D02*
X115000000Y-101020000D01*
X118100000Y-105220000D02*
X118100000Y-104120000D01*
X119200000Y-106320000D02*
X118100000Y-105220000D01*
X121700000Y-106320000D02*
X119200000Y-106320000D01*
X123400000Y-111420000D02*
X123400000Y-108020000D01*
X123400000Y-108020000D02*
X121700000Y-106320000D01*
X122700000Y-112120000D02*
X123400000Y-111420000D01*
X122700000Y-112220000D02*
X122700000Y-112120000D01*
X116100000Y-112220000D02*
X122700000Y-112220000D01*
X153100000Y-94460000D02*
X142530000Y-105030000D01*
X153100000Y-79220000D02*
X153100000Y-94460000D01*
X141100000Y-67220000D02*
X153100000Y-79220000D01*
X112100000Y-67220000D02*
X141100000Y-67220000D01*
X102100000Y-77220000D02*
X112100000Y-67220000D01*
X126100000Y-82920000D02*
X128800000Y-82920000D01*
X128800000Y-82920000D02*
X130100000Y-84220000D01*
X130100000Y-84220000D02*
X130100000Y-89220000D01*
X124450000Y-94870000D02*
X121450000Y-94870000D01*
X130100000Y-89220000D02*
X124450000Y-94870000D01*
X121450000Y-94870000D02*
X119670000Y-94870000D01*
X128640000Y-72760000D02*
X126100000Y-72760000D01*
X133100000Y-77220000D02*
X128640000Y-72760000D01*
X133100000Y-96420000D02*
X133100000Y-77220000D01*
X125800000Y-103720000D02*
X133100000Y-96420000D01*
X118600000Y-103720000D02*
X125800000Y-103720000D01*
X116100000Y-101220000D02*
X118600000Y-103720000D01*
X119670000Y-97410000D02*
X117910000Y-97410000D01*
X116100000Y-99220000D02*
X116100000Y-101220000D01*
X117910000Y-97410000D02*
X116100000Y-99220000D01*
X121830000Y-102490000D02*
X119670000Y-102490000D01*
X132100000Y-92220000D02*
X121830000Y-102490000D01*
X132100000Y-81220000D02*
X132100000Y-92220000D01*
X128720000Y-77840000D02*
X132100000Y-81220000D01*
X126100000Y-77840000D02*
X128720000Y-77840000D01*
X120020000Y-75300000D02*
X126100000Y-75300000D01*
X111100000Y-84220000D02*
X120020000Y-75300000D01*
X106397999Y-94922001D02*
X111100000Y-90220000D01*
X103550999Y-94922001D02*
X106397999Y-94922001D01*
X111100000Y-90220000D02*
X111100000Y-84220000D01*
X102701000Y-95772000D02*
X103550999Y-94922001D01*
X121940000Y-80380000D02*
X126100000Y-80380000D01*
X102701000Y-100852000D02*
X103550999Y-100002001D01*
X121100000Y-81220000D02*
X121940000Y-80380000D01*
X121100000Y-84220000D02*
X121100000Y-81220000D01*
X105317999Y-100002001D02*
X121100000Y-84220000D01*
X103550999Y-100002001D02*
X105317999Y-100002001D01*
X122860000Y-85460000D02*
X126100000Y-85460000D01*
X105100000Y-103220000D02*
X122860000Y-85460000D01*
X101100000Y-103220000D02*
X105100000Y-103220000D01*
X100192000Y-98312000D02*
X100100000Y-98404000D01*
X100100000Y-102220000D02*
X101100000Y-103220000D01*
X100100000Y-98404000D02*
X100100000Y-102220000D01*
X102701000Y-98312000D02*
X100192000Y-98312000D01*
D24*
G36*
X156440001Y-108775862D02*
G01*
X156311864Y-108584091D01*
X155735909Y-108008136D01*
X155058657Y-107555611D01*
X154306135Y-107243906D01*
X153507262Y-107085000D01*
X152692738Y-107085000D01*
X151893865Y-107243906D01*
X151141343Y-107555611D01*
X150464091Y-108008136D01*
X149888136Y-108584091D01*
X149435611Y-109261343D01*
X149123906Y-110013865D01*
X148965000Y-110812738D01*
X148965000Y-111627262D01*
X149123906Y-112426135D01*
X149435611Y-113178657D01*
X149888136Y-113855909D01*
X150464091Y-114431864D01*
X150655860Y-114560000D01*
X97760000Y-114560000D01*
X97760000Y-110957323D01*
X98433000Y-110957323D01*
X98433000Y-111482677D01*
X98535492Y-111997935D01*
X98736536Y-112483298D01*
X99028406Y-112920113D01*
X99399887Y-113291594D01*
X99836702Y-113583464D01*
X100322065Y-113784508D01*
X100837323Y-113887000D01*
X101362677Y-113887000D01*
X101877935Y-113784508D01*
X102363298Y-113583464D01*
X102800113Y-113291594D01*
X103171594Y-112920113D01*
X103463464Y-112483298D01*
X103664508Y-111997935D01*
X103767000Y-111482677D01*
X103767000Y-110957323D01*
X103664508Y-110442065D01*
X103463464Y-109956702D01*
X103171594Y-109519887D01*
X102800113Y-109148406D01*
X102363298Y-108856536D01*
X101877935Y-108655492D01*
X101362677Y-108553000D01*
X100837323Y-108553000D01*
X100322065Y-108655492D01*
X99836702Y-108856536D01*
X99399887Y-109148406D01*
X99028406Y-109519887D01*
X98736536Y-109956702D01*
X98535492Y-110442065D01*
X98433000Y-110957323D01*
X97760000Y-110957323D01*
X97760000Y-98404000D01*
X99336324Y-98404000D01*
X99340000Y-98441323D01*
X99340001Y-102182668D01*
X99336324Y-102220000D01*
X99350998Y-102368985D01*
X99394454Y-102512246D01*
X99465026Y-102644276D01*
X99518142Y-102708997D01*
X99560000Y-102760001D01*
X99588998Y-102783799D01*
X100536201Y-103731003D01*
X100559999Y-103760001D01*
X100588997Y-103783799D01*
X100675724Y-103854974D01*
X100807753Y-103925546D01*
X100951014Y-103969003D01*
X101100000Y-103983677D01*
X101137333Y-103980000D01*
X104509230Y-103980000D01*
X104474188Y-104095518D01*
X104461928Y-104220000D01*
X104461928Y-106220000D01*
X104474188Y-106344482D01*
X104510498Y-106464180D01*
X104569463Y-106574494D01*
X104648815Y-106671185D01*
X104745506Y-106750537D01*
X104791630Y-106775191D01*
X104651082Y-106985537D01*
X104527832Y-107283088D01*
X104465000Y-107598967D01*
X104465000Y-107921033D01*
X104527832Y-108236912D01*
X104651082Y-108534463D01*
X104830013Y-108802252D01*
X105057748Y-109029987D01*
X105325537Y-109208918D01*
X105623088Y-109332168D01*
X105938967Y-109395000D01*
X106261033Y-109395000D01*
X106576912Y-109332168D01*
X106874463Y-109208918D01*
X107142252Y-109029987D01*
X107369987Y-108802252D01*
X107548918Y-108534463D01*
X107672168Y-108236912D01*
X107735000Y-107921033D01*
X107735000Y-107598967D01*
X107672168Y-107283088D01*
X107548918Y-106985537D01*
X107408370Y-106775191D01*
X107454494Y-106750537D01*
X107551185Y-106671185D01*
X107630537Y-106574494D01*
X107689502Y-106464180D01*
X107725812Y-106344482D01*
X107738072Y-106220000D01*
X107738072Y-105980000D01*
X107785199Y-105980000D01*
X109340000Y-107534802D01*
X109340000Y-107745197D01*
X106265906Y-110819292D01*
X106221309Y-110805764D01*
X106010492Y-110785000D01*
X105869508Y-110785000D01*
X105658691Y-110805764D01*
X105388192Y-110887818D01*
X105138899Y-111021068D01*
X104920392Y-111200392D01*
X104741068Y-111418899D01*
X104607818Y-111668192D01*
X104525764Y-111938691D01*
X104498057Y-112220000D01*
X104525764Y-112501309D01*
X104607818Y-112771808D01*
X104741068Y-113021101D01*
X104920392Y-113239608D01*
X105138899Y-113418932D01*
X105388192Y-113552182D01*
X105658691Y-113634236D01*
X105869508Y-113655000D01*
X106010492Y-113655000D01*
X106221309Y-113634236D01*
X106491808Y-113552182D01*
X106741101Y-113418932D01*
X106959608Y-113239608D01*
X107138932Y-113021101D01*
X107272182Y-112771808D01*
X107354236Y-112501309D01*
X107381943Y-112220000D01*
X107354236Y-111938691D01*
X107340708Y-111894094D01*
X110020001Y-109214802D01*
X110536201Y-109731003D01*
X110559999Y-109760001D01*
X110588997Y-109783799D01*
X110675724Y-109854974D01*
X110807753Y-109925546D01*
X110951014Y-109969003D01*
X111100000Y-109983677D01*
X111137333Y-109980000D01*
X117982678Y-109980000D01*
X118020000Y-109983676D01*
X118057322Y-109980000D01*
X118057333Y-109980000D01*
X118168986Y-109969003D01*
X118233742Y-109949360D01*
X118230000Y-109968172D01*
X118230000Y-110251828D01*
X118285338Y-110530033D01*
X118393888Y-110792096D01*
X118551479Y-111027947D01*
X118752053Y-111228521D01*
X118987904Y-111386112D01*
X119166285Y-111460000D01*
X117318043Y-111460000D01*
X117214637Y-111305241D01*
X117014759Y-111105363D01*
X116779727Y-110948320D01*
X116518574Y-110840147D01*
X116241335Y-110785000D01*
X115958665Y-110785000D01*
X115681426Y-110840147D01*
X115420273Y-110948320D01*
X115185241Y-111105363D01*
X114985363Y-111305241D01*
X114828320Y-111540273D01*
X114720147Y-111801426D01*
X114665000Y-112078665D01*
X114665000Y-112361335D01*
X114720147Y-112638574D01*
X114828320Y-112899727D01*
X114985363Y-113134759D01*
X115185241Y-113334637D01*
X115420273Y-113491680D01*
X115681426Y-113599853D01*
X115958665Y-113655000D01*
X116241335Y-113655000D01*
X116518574Y-113599853D01*
X116779727Y-113491680D01*
X117014759Y-113334637D01*
X117214637Y-113134759D01*
X117318043Y-112980000D01*
X122662667Y-112980000D01*
X122700000Y-112983677D01*
X122737333Y-112980000D01*
X122848986Y-112969003D01*
X122992247Y-112925546D01*
X123124276Y-112854974D01*
X123240001Y-112760001D01*
X123334974Y-112644276D01*
X123405546Y-112512247D01*
X123415557Y-112479245D01*
X123911009Y-111983794D01*
X123940001Y-111960001D01*
X123963795Y-111931008D01*
X123963799Y-111931004D01*
X124034973Y-111844277D01*
X124034974Y-111844276D01*
X124105546Y-111712247D01*
X124149003Y-111568986D01*
X124160000Y-111457333D01*
X124160000Y-111457324D01*
X124163676Y-111420001D01*
X124160000Y-111382678D01*
X124160000Y-108057322D01*
X124163676Y-108019999D01*
X124160000Y-107982676D01*
X124160000Y-107982667D01*
X124149003Y-107871014D01*
X124105546Y-107727753D01*
X124060926Y-107644276D01*
X124034974Y-107595723D01*
X123963799Y-107508997D01*
X123940001Y-107479999D01*
X123911003Y-107456201D01*
X122263804Y-105809003D01*
X122240001Y-105779999D01*
X122124276Y-105685026D01*
X121992247Y-105614454D01*
X121848986Y-105570997D01*
X121737333Y-105560000D01*
X121737322Y-105560000D01*
X121700000Y-105556324D01*
X121662678Y-105560000D01*
X121009112Y-105560000D01*
X121054662Y-105450033D01*
X121110000Y-105171828D01*
X121110000Y-104888172D01*
X121054662Y-104609967D01*
X121000828Y-104480000D01*
X125762678Y-104480000D01*
X125800000Y-104483676D01*
X125837322Y-104480000D01*
X125837333Y-104480000D01*
X125948986Y-104469003D01*
X126092247Y-104425546D01*
X126224276Y-104354974D01*
X126340001Y-104260001D01*
X126363804Y-104230997D01*
X133611004Y-96983798D01*
X133640001Y-96960001D01*
X133713864Y-96869999D01*
X133734974Y-96844277D01*
X133805546Y-96712247D01*
X133825543Y-96646323D01*
X133849003Y-96568986D01*
X133860000Y-96457333D01*
X133860000Y-96457323D01*
X133863676Y-96420001D01*
X133860000Y-96382678D01*
X133860000Y-92400313D01*
X141084742Y-92400313D01*
X141126230Y-92680918D01*
X141221664Y-92948037D01*
X141289247Y-93074479D01*
X141533727Y-93146668D01*
X142350395Y-92330000D01*
X142709605Y-92330000D01*
X143526273Y-93146668D01*
X143770753Y-93074479D01*
X143892153Y-92818115D01*
X143961205Y-92542993D01*
X143975258Y-92259687D01*
X143933770Y-91979082D01*
X143838336Y-91711963D01*
X143770753Y-91585521D01*
X143526273Y-91513332D01*
X142709605Y-92330000D01*
X142350395Y-92330000D01*
X141533727Y-91513332D01*
X141289247Y-91585521D01*
X141167847Y-91841885D01*
X141098795Y-92117007D01*
X141084742Y-92400313D01*
X133860000Y-92400313D01*
X133860000Y-91333727D01*
X141713332Y-91333727D01*
X142530000Y-92150395D01*
X143346668Y-91333727D01*
X143274479Y-91089247D01*
X143018115Y-90967847D01*
X142742993Y-90898795D01*
X142459687Y-90884742D01*
X142179082Y-90926230D01*
X141911963Y-91021664D01*
X141785521Y-91089247D01*
X141713332Y-91333727D01*
X133860000Y-91333727D01*
X133860000Y-77257322D01*
X133863676Y-77219999D01*
X133860000Y-77182676D01*
X133860000Y-77182667D01*
X133849003Y-77071014D01*
X133805546Y-76927753D01*
X133734974Y-76795724D01*
X133691777Y-76743088D01*
X133663799Y-76708996D01*
X133663795Y-76708992D01*
X133640001Y-76679999D01*
X133611008Y-76656205D01*
X129714802Y-72760000D01*
X134418057Y-72760000D01*
X134445764Y-73041309D01*
X134527818Y-73311808D01*
X134661068Y-73561101D01*
X134840392Y-73779608D01*
X135058899Y-73958932D01*
X135191858Y-74030000D01*
X135058899Y-74101068D01*
X134840392Y-74280392D01*
X134661068Y-74498899D01*
X134527818Y-74748192D01*
X134445764Y-75018691D01*
X134418057Y-75300000D01*
X134445764Y-75581309D01*
X134527818Y-75851808D01*
X134661068Y-76101101D01*
X134840392Y-76319608D01*
X135058899Y-76498932D01*
X135191858Y-76570000D01*
X135058899Y-76641068D01*
X134840392Y-76820392D01*
X134661068Y-77038899D01*
X134527818Y-77288192D01*
X134445764Y-77558691D01*
X134418057Y-77840000D01*
X134445764Y-78121309D01*
X134527818Y-78391808D01*
X134661068Y-78641101D01*
X134840392Y-78859608D01*
X135058899Y-79038932D01*
X135191858Y-79110000D01*
X135058899Y-79181068D01*
X134840392Y-79360392D01*
X134661068Y-79578899D01*
X134527818Y-79828192D01*
X134445764Y-80098691D01*
X134418057Y-80380000D01*
X134445764Y-80661309D01*
X134527818Y-80931808D01*
X134661068Y-81181101D01*
X134840392Y-81399608D01*
X135058899Y-81578932D01*
X135191858Y-81650000D01*
X135058899Y-81721068D01*
X134840392Y-81900392D01*
X134661068Y-82118899D01*
X134527818Y-82368192D01*
X134445764Y-82638691D01*
X134418057Y-82920000D01*
X134445764Y-83201309D01*
X134527818Y-83471808D01*
X134661068Y-83721101D01*
X134840392Y-83939608D01*
X135058899Y-84118932D01*
X135191858Y-84190000D01*
X135058899Y-84261068D01*
X134840392Y-84440392D01*
X134661068Y-84658899D01*
X134527818Y-84908192D01*
X134445764Y-85178691D01*
X134418057Y-85460000D01*
X134445764Y-85741309D01*
X134527818Y-86011808D01*
X134661068Y-86261101D01*
X134840392Y-86479608D01*
X135058899Y-86658932D01*
X135191858Y-86730000D01*
X135058899Y-86801068D01*
X134840392Y-86980392D01*
X134661068Y-87198899D01*
X134527818Y-87448192D01*
X134445764Y-87718691D01*
X134418057Y-88000000D01*
X134445764Y-88281309D01*
X134527818Y-88551808D01*
X134661068Y-88801101D01*
X134840392Y-89019608D01*
X135058899Y-89198932D01*
X135308192Y-89332182D01*
X135578691Y-89414236D01*
X135789508Y-89435000D01*
X136730492Y-89435000D01*
X136941309Y-89414236D01*
X137211808Y-89332182D01*
X137461101Y-89198932D01*
X137679608Y-89019608D01*
X137858932Y-88801101D01*
X137992182Y-88551808D01*
X138074236Y-88281309D01*
X138101943Y-88000000D01*
X138074236Y-87718691D01*
X137992182Y-87448192D01*
X137858932Y-87198899D01*
X137679608Y-86980392D01*
X137461101Y-86801068D01*
X137328142Y-86730000D01*
X137461101Y-86658932D01*
X137679608Y-86479608D01*
X137858932Y-86261101D01*
X137992182Y-86011808D01*
X138074236Y-85741309D01*
X138101943Y-85460000D01*
X138092905Y-85368229D01*
X143581000Y-85368229D01*
X143581000Y-85985771D01*
X143701476Y-86591446D01*
X143937799Y-87161979D01*
X144280886Y-87675446D01*
X144717554Y-88112114D01*
X145231021Y-88455201D01*
X145801554Y-88691524D01*
X146407229Y-88812000D01*
X147024771Y-88812000D01*
X147630446Y-88691524D01*
X148200979Y-88455201D01*
X148714446Y-88112114D01*
X149151114Y-87675446D01*
X149494201Y-87161979D01*
X149730524Y-86591446D01*
X149851000Y-85985771D01*
X149851000Y-85368229D01*
X149730524Y-84762554D01*
X149494201Y-84192021D01*
X149151114Y-83678554D01*
X148714446Y-83241886D01*
X148200979Y-82898799D01*
X147630446Y-82662476D01*
X147024771Y-82542000D01*
X146407229Y-82542000D01*
X145801554Y-82662476D01*
X145231021Y-82898799D01*
X144717554Y-83241886D01*
X144280886Y-83678554D01*
X143937799Y-84192021D01*
X143701476Y-84762554D01*
X143581000Y-85368229D01*
X138092905Y-85368229D01*
X138074236Y-85178691D01*
X137992182Y-84908192D01*
X137858932Y-84658899D01*
X137679608Y-84440392D01*
X137461101Y-84261068D01*
X137328142Y-84190000D01*
X137461101Y-84118932D01*
X137679608Y-83939608D01*
X137858932Y-83721101D01*
X137992182Y-83471808D01*
X138074236Y-83201309D01*
X138101943Y-82920000D01*
X138074236Y-82638691D01*
X137992182Y-82368192D01*
X137858932Y-82118899D01*
X137679608Y-81900392D01*
X137461101Y-81721068D01*
X137328142Y-81650000D01*
X137461101Y-81578932D01*
X137679608Y-81399608D01*
X137858932Y-81181101D01*
X137992182Y-80931808D01*
X138074236Y-80661309D01*
X138101943Y-80380000D01*
X138074236Y-80098691D01*
X137992182Y-79828192D01*
X137858932Y-79578899D01*
X137679608Y-79360392D01*
X137461101Y-79181068D01*
X137328142Y-79110000D01*
X137461101Y-79038932D01*
X137679608Y-78859608D01*
X137858932Y-78641101D01*
X137992182Y-78391808D01*
X138074236Y-78121309D01*
X138101943Y-77840000D01*
X138074236Y-77558691D01*
X137992182Y-77288192D01*
X137858932Y-77038899D01*
X137679608Y-76820392D01*
X137461101Y-76641068D01*
X137328142Y-76570000D01*
X137461101Y-76498932D01*
X137679608Y-76319608D01*
X137858932Y-76101101D01*
X137992182Y-75851808D01*
X138074236Y-75581309D01*
X138101943Y-75300000D01*
X138074236Y-75018691D01*
X137992182Y-74748192D01*
X137858932Y-74498899D01*
X137679608Y-74280392D01*
X137461101Y-74101068D01*
X137328142Y-74030000D01*
X137461101Y-73958932D01*
X137679608Y-73779608D01*
X137858932Y-73561101D01*
X137992182Y-73311808D01*
X138074236Y-73041309D01*
X138101943Y-72760000D01*
X138074236Y-72478691D01*
X137992182Y-72208192D01*
X137858932Y-71958899D01*
X137679608Y-71740392D01*
X137461101Y-71561068D01*
X137333259Y-71492735D01*
X137562839Y-71342601D01*
X137764500Y-71144895D01*
X137923715Y-70911646D01*
X138034367Y-70651818D01*
X138051904Y-70569039D01*
X137929915Y-70347000D01*
X136387000Y-70347000D01*
X136387000Y-70367000D01*
X136133000Y-70367000D01*
X136133000Y-70347000D01*
X134590085Y-70347000D01*
X134468096Y-70569039D01*
X134485633Y-70651818D01*
X134596285Y-70911646D01*
X134755500Y-71144895D01*
X134957161Y-71342601D01*
X135186741Y-71492735D01*
X135058899Y-71561068D01*
X134840392Y-71740392D01*
X134661068Y-71958899D01*
X134527818Y-72208192D01*
X134445764Y-72478691D01*
X134418057Y-72760000D01*
X129714802Y-72760000D01*
X129203804Y-72249003D01*
X129180001Y-72219999D01*
X129064276Y-72125026D01*
X128932247Y-72054454D01*
X128788986Y-72010997D01*
X128677333Y-72000000D01*
X128677322Y-72000000D01*
X128640000Y-71996324D01*
X128602678Y-72000000D01*
X127720901Y-72000000D01*
X127698932Y-71958899D01*
X127519608Y-71740392D01*
X127406518Y-71647581D01*
X127424482Y-71645812D01*
X127544180Y-71609502D01*
X127654494Y-71550537D01*
X127751185Y-71471185D01*
X127830537Y-71374494D01*
X127889502Y-71264180D01*
X127925812Y-71144482D01*
X127938072Y-71020000D01*
X127938072Y-69870961D01*
X134468096Y-69870961D01*
X134590085Y-70093000D01*
X136133000Y-70093000D01*
X136133000Y-68785000D01*
X136387000Y-68785000D01*
X136387000Y-70093000D01*
X137929915Y-70093000D01*
X138051904Y-69870961D01*
X138034367Y-69788182D01*
X137923715Y-69528354D01*
X137764500Y-69295105D01*
X137562839Y-69097399D01*
X137326483Y-68942834D01*
X137064514Y-68837350D01*
X136787000Y-68785000D01*
X136387000Y-68785000D01*
X136133000Y-68785000D01*
X135733000Y-68785000D01*
X135455486Y-68837350D01*
X135193517Y-68942834D01*
X134957161Y-69097399D01*
X134755500Y-69295105D01*
X134596285Y-69528354D01*
X134485633Y-69788182D01*
X134468096Y-69870961D01*
X127938072Y-69870961D01*
X127938072Y-69420000D01*
X127925812Y-69295518D01*
X127889502Y-69175820D01*
X127830537Y-69065506D01*
X127751185Y-68968815D01*
X127654494Y-68889463D01*
X127544180Y-68830498D01*
X127424482Y-68794188D01*
X127300000Y-68781928D01*
X124900000Y-68781928D01*
X124775518Y-68794188D01*
X124655820Y-68830498D01*
X124545506Y-68889463D01*
X124448815Y-68968815D01*
X124369463Y-69065506D01*
X124310498Y-69175820D01*
X124274188Y-69295518D01*
X124261928Y-69420000D01*
X124261928Y-71020000D01*
X124274188Y-71144482D01*
X124310498Y-71264180D01*
X124369463Y-71374494D01*
X124448815Y-71471185D01*
X124545506Y-71550537D01*
X124655820Y-71609502D01*
X124775518Y-71645812D01*
X124793482Y-71647581D01*
X124680392Y-71740392D01*
X124501068Y-71958899D01*
X124367818Y-72208192D01*
X124285764Y-72478691D01*
X124258057Y-72760000D01*
X124285764Y-73041309D01*
X124367818Y-73311808D01*
X124501068Y-73561101D01*
X124680392Y-73779608D01*
X124898899Y-73958932D01*
X125031858Y-74030000D01*
X124898899Y-74101068D01*
X124680392Y-74280392D01*
X124501068Y-74498899D01*
X124479099Y-74540000D01*
X120057323Y-74540000D01*
X120020000Y-74536324D01*
X119982677Y-74540000D01*
X119982667Y-74540000D01*
X119871014Y-74550997D01*
X119727753Y-74594454D01*
X119595723Y-74665026D01*
X119512083Y-74733668D01*
X119479999Y-74759999D01*
X119456201Y-74788997D01*
X110588998Y-83656201D01*
X110560000Y-83679999D01*
X110536202Y-83708997D01*
X110536201Y-83708998D01*
X110465026Y-83795724D01*
X110394454Y-83927754D01*
X110364956Y-84025000D01*
X110350998Y-84071014D01*
X110345403Y-84127818D01*
X110336324Y-84220000D01*
X110340001Y-84257332D01*
X110340000Y-89905198D01*
X106083198Y-94162001D01*
X103858828Y-94162001D01*
X103941706Y-94061014D01*
X104079599Y-93803034D01*
X104164513Y-93523111D01*
X104193185Y-93232000D01*
X104164513Y-92940889D01*
X104079599Y-92660966D01*
X103941706Y-92402986D01*
X103756134Y-92176866D01*
X103726313Y-92152393D01*
X103795180Y-92131502D01*
X103905494Y-92072537D01*
X104002185Y-91993185D01*
X104081537Y-91896494D01*
X104140502Y-91786180D01*
X104176812Y-91666482D01*
X104189072Y-91542000D01*
X104186000Y-90977750D01*
X104027250Y-90819000D01*
X102828000Y-90819000D01*
X102828000Y-90839000D01*
X102574000Y-90839000D01*
X102574000Y-90819000D01*
X101374750Y-90819000D01*
X101216000Y-90977750D01*
X101212928Y-91542000D01*
X101225188Y-91666482D01*
X101261498Y-91786180D01*
X101320463Y-91896494D01*
X101399815Y-91993185D01*
X101496506Y-92072537D01*
X101606820Y-92131502D01*
X101675687Y-92152393D01*
X101645866Y-92176866D01*
X101460294Y-92402986D01*
X101322401Y-92660966D01*
X101237487Y-92940889D01*
X101208815Y-93232000D01*
X101237487Y-93523111D01*
X101322401Y-93803034D01*
X101460294Y-94061014D01*
X101645866Y-94287134D01*
X101871986Y-94472706D01*
X101926791Y-94502000D01*
X101871986Y-94531294D01*
X101645866Y-94716866D01*
X101460294Y-94942986D01*
X101322401Y-95200966D01*
X101237487Y-95480889D01*
X101208815Y-95772000D01*
X101237487Y-96063111D01*
X101322401Y-96343034D01*
X101460294Y-96601014D01*
X101645866Y-96827134D01*
X101871986Y-97012706D01*
X101926791Y-97042000D01*
X101871986Y-97071294D01*
X101645866Y-97256866D01*
X101460294Y-97482986D01*
X101423405Y-97552000D01*
X100229325Y-97552000D01*
X100192000Y-97548324D01*
X100154675Y-97552000D01*
X100154667Y-97552000D01*
X100043014Y-97562997D01*
X99899753Y-97606454D01*
X99767724Y-97677026D01*
X99651999Y-97771999D01*
X99628196Y-97801003D01*
X99589003Y-97840196D01*
X99559999Y-97863999D01*
X99504871Y-97931174D01*
X99465026Y-97979724D01*
X99394455Y-98111753D01*
X99394454Y-98111754D01*
X99350997Y-98255015D01*
X99340000Y-98366668D01*
X99340000Y-98366678D01*
X99336324Y-98404000D01*
X97760000Y-98404000D01*
X97760000Y-89842000D01*
X101212928Y-89842000D01*
X101216000Y-90406250D01*
X101374750Y-90565000D01*
X102574000Y-90565000D01*
X102574000Y-89365750D01*
X102828000Y-89365750D01*
X102828000Y-90565000D01*
X104027250Y-90565000D01*
X104186000Y-90406250D01*
X104189072Y-89842000D01*
X104176812Y-89717518D01*
X104140502Y-89597820D01*
X104081537Y-89487506D01*
X104002185Y-89390815D01*
X103905494Y-89311463D01*
X103795180Y-89252498D01*
X103675482Y-89216188D01*
X103551000Y-89203928D01*
X102986750Y-89207000D01*
X102828000Y-89365750D01*
X102574000Y-89365750D01*
X102415250Y-89207000D01*
X101851000Y-89203928D01*
X101726518Y-89216188D01*
X101606820Y-89252498D01*
X101496506Y-89311463D01*
X101399815Y-89390815D01*
X101320463Y-89487506D01*
X101261498Y-89597820D01*
X101225188Y-89717518D01*
X101212928Y-89842000D01*
X97760000Y-89842000D01*
X97760000Y-82058967D01*
X100465000Y-82058967D01*
X100465000Y-82381033D01*
X100527832Y-82696912D01*
X100651082Y-82994463D01*
X100830013Y-83262252D01*
X101057748Y-83489987D01*
X101325537Y-83668918D01*
X101623088Y-83792168D01*
X101938967Y-83855000D01*
X102261033Y-83855000D01*
X102576912Y-83792168D01*
X102874463Y-83668918D01*
X103142252Y-83489987D01*
X103369987Y-83262252D01*
X103548918Y-82994463D01*
X103672168Y-82696912D01*
X103735000Y-82381033D01*
X103735000Y-82058967D01*
X105465000Y-82058967D01*
X105465000Y-82381033D01*
X105527832Y-82696912D01*
X105651082Y-82994463D01*
X105830013Y-83262252D01*
X106057748Y-83489987D01*
X106325537Y-83668918D01*
X106623088Y-83792168D01*
X106938967Y-83855000D01*
X107261033Y-83855000D01*
X107576912Y-83792168D01*
X107874463Y-83668918D01*
X108142252Y-83489987D01*
X108369987Y-83262252D01*
X108548918Y-82994463D01*
X108672168Y-82696912D01*
X108735000Y-82381033D01*
X108735000Y-82058967D01*
X108672168Y-81743088D01*
X108548918Y-81445537D01*
X108369987Y-81177748D01*
X108142252Y-80950013D01*
X107874463Y-80771082D01*
X107576912Y-80647832D01*
X107261033Y-80585000D01*
X106938967Y-80585000D01*
X106623088Y-80647832D01*
X106325537Y-80771082D01*
X106057748Y-80950013D01*
X105830013Y-81177748D01*
X105651082Y-81445537D01*
X105527832Y-81743088D01*
X105465000Y-82058967D01*
X103735000Y-82058967D01*
X103672168Y-81743088D01*
X103548918Y-81445537D01*
X103369987Y-81177748D01*
X103142252Y-80950013D01*
X102874463Y-80771082D01*
X102576912Y-80647832D01*
X102261033Y-80585000D01*
X101938967Y-80585000D01*
X101623088Y-80647832D01*
X101325537Y-80771082D01*
X101057748Y-80950013D01*
X100830013Y-81177748D01*
X100651082Y-81445537D01*
X100527832Y-81743088D01*
X100465000Y-82058967D01*
X97760000Y-82058967D01*
X97760000Y-77058967D01*
X100465000Y-77058967D01*
X100465000Y-77381033D01*
X100527832Y-77696912D01*
X100651082Y-77994463D01*
X100830013Y-78262252D01*
X101057748Y-78489987D01*
X101325537Y-78668918D01*
X101623088Y-78792168D01*
X101938967Y-78855000D01*
X102261033Y-78855000D01*
X102576912Y-78792168D01*
X102874463Y-78668918D01*
X103142252Y-78489987D01*
X103369987Y-78262252D01*
X103548918Y-77994463D01*
X103672168Y-77696912D01*
X103735000Y-77381033D01*
X103735000Y-77058967D01*
X105465000Y-77058967D01*
X105465000Y-77381033D01*
X105527832Y-77696912D01*
X105651082Y-77994463D01*
X105830013Y-78262252D01*
X106057748Y-78489987D01*
X106325537Y-78668918D01*
X106623088Y-78792168D01*
X106938967Y-78855000D01*
X107261033Y-78855000D01*
X107576912Y-78792168D01*
X107874463Y-78668918D01*
X108142252Y-78489987D01*
X108369987Y-78262252D01*
X108548918Y-77994463D01*
X108672168Y-77696912D01*
X108735000Y-77381033D01*
X108735000Y-77058967D01*
X108672168Y-76743088D01*
X108548918Y-76445537D01*
X108369987Y-76177748D01*
X108142252Y-75950013D01*
X107874463Y-75771082D01*
X107576912Y-75647832D01*
X107261033Y-75585000D01*
X106938967Y-75585000D01*
X106623088Y-75647832D01*
X106325537Y-75771082D01*
X106057748Y-75950013D01*
X105830013Y-76177748D01*
X105651082Y-76445537D01*
X105527832Y-76743088D01*
X105465000Y-77058967D01*
X103735000Y-77058967D01*
X103672168Y-76743088D01*
X103666177Y-76728624D01*
X112414802Y-67980000D01*
X140785199Y-67980000D01*
X152340000Y-79534802D01*
X152340001Y-94145197D01*
X143970000Y-102515199D01*
X143970000Y-102348172D01*
X143914662Y-102069967D01*
X143806112Y-101807904D01*
X143648521Y-101572053D01*
X143447947Y-101371479D01*
X143221243Y-101220000D01*
X143447947Y-101068521D01*
X143648521Y-100867947D01*
X143806112Y-100632096D01*
X143914662Y-100370033D01*
X143970000Y-100091828D01*
X143970000Y-99808172D01*
X143914662Y-99529967D01*
X143806112Y-99267904D01*
X143648521Y-99032053D01*
X143447947Y-98831479D01*
X143221243Y-98680000D01*
X143447947Y-98528521D01*
X143648521Y-98327947D01*
X143806112Y-98092096D01*
X143914662Y-97830033D01*
X143970000Y-97551828D01*
X143970000Y-97268172D01*
X143914662Y-96989967D01*
X143806112Y-96727904D01*
X143648521Y-96492053D01*
X143447947Y-96291479D01*
X143221243Y-96140000D01*
X143447947Y-95988521D01*
X143648521Y-95787947D01*
X143806112Y-95552096D01*
X143914662Y-95290033D01*
X143970000Y-95011828D01*
X143970000Y-94728172D01*
X143914662Y-94449967D01*
X143806112Y-94187904D01*
X143648521Y-93952053D01*
X143447947Y-93751479D01*
X143220584Y-93599560D01*
X143274479Y-93570753D01*
X143346668Y-93326273D01*
X142530000Y-92509605D01*
X141713332Y-93326273D01*
X141785521Y-93570753D01*
X141842293Y-93597637D01*
X141612053Y-93751479D01*
X141411479Y-93952053D01*
X141253888Y-94187904D01*
X141145338Y-94449967D01*
X141090000Y-94728172D01*
X141090000Y-95011828D01*
X141145338Y-95290033D01*
X141253888Y-95552096D01*
X141411479Y-95787947D01*
X141612053Y-95988521D01*
X141838757Y-96140000D01*
X141612053Y-96291479D01*
X141411479Y-96492053D01*
X141253888Y-96727904D01*
X141145338Y-96989967D01*
X141090000Y-97268172D01*
X141090000Y-97551828D01*
X141145338Y-97830033D01*
X141253888Y-98092096D01*
X141411479Y-98327947D01*
X141612053Y-98528521D01*
X141838757Y-98680000D01*
X141612053Y-98831479D01*
X141411479Y-99032053D01*
X141253888Y-99267904D01*
X141145338Y-99529967D01*
X141090000Y-99808172D01*
X141090000Y-100091828D01*
X141145338Y-100370033D01*
X141253888Y-100632096D01*
X141411479Y-100867947D01*
X141612053Y-101068521D01*
X141838757Y-101220000D01*
X141612053Y-101371479D01*
X141411479Y-101572053D01*
X141253888Y-101807904D01*
X141145338Y-102069967D01*
X141090000Y-102348172D01*
X141090000Y-102631828D01*
X141145338Y-102910033D01*
X141253888Y-103172096D01*
X141411479Y-103407947D01*
X141612053Y-103608521D01*
X141838757Y-103760000D01*
X141612053Y-103911479D01*
X141411479Y-104112053D01*
X141253888Y-104347904D01*
X141145338Y-104609967D01*
X141090000Y-104888172D01*
X141090000Y-105171828D01*
X141145338Y-105450033D01*
X141253888Y-105712096D01*
X141411479Y-105947947D01*
X141612053Y-106148521D01*
X141838757Y-106300000D01*
X141612053Y-106451479D01*
X141411479Y-106652053D01*
X141253888Y-106887904D01*
X141145338Y-107149967D01*
X141090000Y-107428172D01*
X141090000Y-107711828D01*
X141145338Y-107990033D01*
X141253888Y-108252096D01*
X141411479Y-108487947D01*
X141612053Y-108688521D01*
X141838757Y-108840000D01*
X141612053Y-108991479D01*
X141411479Y-109192053D01*
X141253888Y-109427904D01*
X141145338Y-109689967D01*
X141090000Y-109968172D01*
X141090000Y-110251828D01*
X141145338Y-110530033D01*
X141253888Y-110792096D01*
X141411479Y-111027947D01*
X141612053Y-111228521D01*
X141847904Y-111386112D01*
X142109967Y-111494662D01*
X142388172Y-111550000D01*
X142671828Y-111550000D01*
X142950033Y-111494662D01*
X143212096Y-111386112D01*
X143447947Y-111228521D01*
X143648521Y-111027947D01*
X143806112Y-110792096D01*
X143914662Y-110530033D01*
X143970000Y-110251828D01*
X143970000Y-109968172D01*
X143914662Y-109689967D01*
X143806112Y-109427904D01*
X143648521Y-109192053D01*
X143447947Y-108991479D01*
X143221243Y-108840000D01*
X143447947Y-108688521D01*
X143648521Y-108487947D01*
X143806112Y-108252096D01*
X143914662Y-107990033D01*
X143970000Y-107711828D01*
X143970000Y-107428172D01*
X143914662Y-107149967D01*
X143806112Y-106887904D01*
X143648521Y-106652053D01*
X143447947Y-106451479D01*
X143221243Y-106300000D01*
X143447947Y-106148521D01*
X143585927Y-106010541D01*
X143701476Y-106591446D01*
X143937799Y-107161979D01*
X144280886Y-107675446D01*
X144717554Y-108112114D01*
X145231021Y-108455201D01*
X145801554Y-108691524D01*
X146407229Y-108812000D01*
X147024771Y-108812000D01*
X147630446Y-108691524D01*
X148200979Y-108455201D01*
X148714446Y-108112114D01*
X149151114Y-107675446D01*
X149494201Y-107161979D01*
X149730524Y-106591446D01*
X149851000Y-105985771D01*
X149851000Y-105368229D01*
X149730524Y-104762554D01*
X149494201Y-104192021D01*
X149151114Y-103678554D01*
X148714446Y-103241886D01*
X148200979Y-102898799D01*
X147630446Y-102662476D01*
X147024771Y-102542000D01*
X146407229Y-102542000D01*
X146014728Y-102620073D01*
X153611003Y-95023799D01*
X153640001Y-95000001D01*
X153734974Y-94884276D01*
X153805546Y-94752247D01*
X153849003Y-94608986D01*
X153860000Y-94497333D01*
X153860000Y-94497324D01*
X153863676Y-94460001D01*
X153860000Y-94422678D01*
X153860000Y-79257325D01*
X153863676Y-79220000D01*
X153860000Y-79182675D01*
X153860000Y-79182667D01*
X153849003Y-79071014D01*
X153805546Y-78927753D01*
X153734974Y-78795724D01*
X153640001Y-78679999D01*
X153611004Y-78656202D01*
X143912125Y-68957323D01*
X150433000Y-68957323D01*
X150433000Y-69482677D01*
X150535492Y-69997935D01*
X150736536Y-70483298D01*
X151028406Y-70920113D01*
X151399887Y-71291594D01*
X151836702Y-71583464D01*
X152322065Y-71784508D01*
X152837323Y-71887000D01*
X153362677Y-71887000D01*
X153877935Y-71784508D01*
X154363298Y-71583464D01*
X154800113Y-71291594D01*
X155171594Y-70920113D01*
X155463464Y-70483298D01*
X155664508Y-69997935D01*
X155767000Y-69482677D01*
X155767000Y-68957323D01*
X155664508Y-68442065D01*
X155463464Y-67956702D01*
X155171594Y-67519887D01*
X154800113Y-67148406D01*
X154363298Y-66856536D01*
X153877935Y-66655492D01*
X153362677Y-66553000D01*
X152837323Y-66553000D01*
X152322065Y-66655492D01*
X151836702Y-66856536D01*
X151399887Y-67148406D01*
X151028406Y-67519887D01*
X150736536Y-67956702D01*
X150535492Y-68442065D01*
X150433000Y-68957323D01*
X143912125Y-68957323D01*
X141663804Y-66709003D01*
X141640001Y-66679999D01*
X141524276Y-66585026D01*
X141392247Y-66514454D01*
X141248986Y-66470997D01*
X141137333Y-66460000D01*
X141137322Y-66460000D01*
X141100000Y-66456324D01*
X141062678Y-66460000D01*
X112137333Y-66460000D01*
X112100000Y-66456323D01*
X112062667Y-66460000D01*
X111951014Y-66470997D01*
X111807753Y-66514454D01*
X111675724Y-66585026D01*
X111559999Y-66679999D01*
X111536201Y-66708997D01*
X102591376Y-75653823D01*
X102576912Y-75647832D01*
X102261033Y-75585000D01*
X101938967Y-75585000D01*
X101623088Y-75647832D01*
X101325537Y-75771082D01*
X101057748Y-75950013D01*
X100830013Y-76177748D01*
X100651082Y-76445537D01*
X100527832Y-76743088D01*
X100465000Y-77058967D01*
X97760000Y-77058967D01*
X97760000Y-68957323D01*
X98433000Y-68957323D01*
X98433000Y-69482677D01*
X98535492Y-69997935D01*
X98736536Y-70483298D01*
X99028406Y-70920113D01*
X99399887Y-71291594D01*
X99836702Y-71583464D01*
X100322065Y-71784508D01*
X100837323Y-71887000D01*
X101362677Y-71887000D01*
X101877935Y-71784508D01*
X102363298Y-71583464D01*
X102800113Y-71291594D01*
X103171594Y-70920113D01*
X103463464Y-70483298D01*
X103664508Y-69997935D01*
X103767000Y-69482677D01*
X103767000Y-68957323D01*
X103664508Y-68442065D01*
X103463464Y-67956702D01*
X103171594Y-67519887D01*
X102800113Y-67148406D01*
X102363298Y-66856536D01*
X101877935Y-66655492D01*
X101362677Y-66553000D01*
X100837323Y-66553000D01*
X100322065Y-66655492D01*
X99836702Y-66856536D01*
X99399887Y-67148406D01*
X99028406Y-67519887D01*
X98736536Y-67956702D01*
X98535492Y-68442065D01*
X98433000Y-68957323D01*
X97760000Y-68957323D01*
X97760000Y-65880000D01*
X156440000Y-65880000D01*
X156440001Y-108775862D01*
X156440001Y-108775862D01*
G37*
X156440001Y-108775862D02*
X156311864Y-108584091D01*
X155735909Y-108008136D01*
X155058657Y-107555611D01*
X154306135Y-107243906D01*
X153507262Y-107085000D01*
X152692738Y-107085000D01*
X151893865Y-107243906D01*
X151141343Y-107555611D01*
X150464091Y-108008136D01*
X149888136Y-108584091D01*
X149435611Y-109261343D01*
X149123906Y-110013865D01*
X148965000Y-110812738D01*
X148965000Y-111627262D01*
X149123906Y-112426135D01*
X149435611Y-113178657D01*
X149888136Y-113855909D01*
X150464091Y-114431864D01*
X150655860Y-114560000D01*
X97760000Y-114560000D01*
X97760000Y-110957323D01*
X98433000Y-110957323D01*
X98433000Y-111482677D01*
X98535492Y-111997935D01*
X98736536Y-112483298D01*
X99028406Y-112920113D01*
X99399887Y-113291594D01*
X99836702Y-113583464D01*
X100322065Y-113784508D01*
X100837323Y-113887000D01*
X101362677Y-113887000D01*
X101877935Y-113784508D01*
X102363298Y-113583464D01*
X102800113Y-113291594D01*
X103171594Y-112920113D01*
X103463464Y-112483298D01*
X103664508Y-111997935D01*
X103767000Y-111482677D01*
X103767000Y-110957323D01*
X103664508Y-110442065D01*
X103463464Y-109956702D01*
X103171594Y-109519887D01*
X102800113Y-109148406D01*
X102363298Y-108856536D01*
X101877935Y-108655492D01*
X101362677Y-108553000D01*
X100837323Y-108553000D01*
X100322065Y-108655492D01*
X99836702Y-108856536D01*
X99399887Y-109148406D01*
X99028406Y-109519887D01*
X98736536Y-109956702D01*
X98535492Y-110442065D01*
X98433000Y-110957323D01*
X97760000Y-110957323D01*
X97760000Y-98404000D01*
X99336324Y-98404000D01*
X99340000Y-98441323D01*
X99340001Y-102182668D01*
X99336324Y-102220000D01*
X99350998Y-102368985D01*
X99394454Y-102512246D01*
X99465026Y-102644276D01*
X99518142Y-102708997D01*
X99560000Y-102760001D01*
X99588998Y-102783799D01*
X100536201Y-103731003D01*
X100559999Y-103760001D01*
X100588997Y-103783799D01*
X100675724Y-103854974D01*
X100807753Y-103925546D01*
X100951014Y-103969003D01*
X101100000Y-103983677D01*
X101137333Y-103980000D01*
X104509230Y-103980000D01*
X104474188Y-104095518D01*
X104461928Y-104220000D01*
X104461928Y-106220000D01*
X104474188Y-106344482D01*
X104510498Y-106464180D01*
X104569463Y-106574494D01*
X104648815Y-106671185D01*
X104745506Y-106750537D01*
X104791630Y-106775191D01*
X104651082Y-106985537D01*
X104527832Y-107283088D01*
X104465000Y-107598967D01*
X104465000Y-107921033D01*
X104527832Y-108236912D01*
X104651082Y-108534463D01*
X104830013Y-108802252D01*
X105057748Y-109029987D01*
X105325537Y-109208918D01*
X105623088Y-109332168D01*
X105938967Y-109395000D01*
X106261033Y-109395000D01*
X106576912Y-109332168D01*
X106874463Y-109208918D01*
X107142252Y-109029987D01*
X107369987Y-108802252D01*
X107548918Y-108534463D01*
X107672168Y-108236912D01*
X107735000Y-107921033D01*
X107735000Y-107598967D01*
X107672168Y-107283088D01*
X107548918Y-106985537D01*
X107408370Y-106775191D01*
X107454494Y-106750537D01*
X107551185Y-106671185D01*
X107630537Y-106574494D01*
X107689502Y-106464180D01*
X107725812Y-106344482D01*
X107738072Y-106220000D01*
X107738072Y-105980000D01*
X107785199Y-105980000D01*
X109340000Y-107534802D01*
X109340000Y-107745197D01*
X106265906Y-110819292D01*
X106221309Y-110805764D01*
X106010492Y-110785000D01*
X105869508Y-110785000D01*
X105658691Y-110805764D01*
X105388192Y-110887818D01*
X105138899Y-111021068D01*
X104920392Y-111200392D01*
X104741068Y-111418899D01*
X104607818Y-111668192D01*
X104525764Y-111938691D01*
X104498057Y-112220000D01*
X104525764Y-112501309D01*
X104607818Y-112771808D01*
X104741068Y-113021101D01*
X104920392Y-113239608D01*
X105138899Y-113418932D01*
X105388192Y-113552182D01*
X105658691Y-113634236D01*
X105869508Y-113655000D01*
X106010492Y-113655000D01*
X106221309Y-113634236D01*
X106491808Y-113552182D01*
X106741101Y-113418932D01*
X106959608Y-113239608D01*
X107138932Y-113021101D01*
X107272182Y-112771808D01*
X107354236Y-112501309D01*
X107381943Y-112220000D01*
X107354236Y-111938691D01*
X107340708Y-111894094D01*
X110020001Y-109214802D01*
X110536201Y-109731003D01*
X110559999Y-109760001D01*
X110588997Y-109783799D01*
X110675724Y-109854974D01*
X110807753Y-109925546D01*
X110951014Y-109969003D01*
X111100000Y-109983677D01*
X111137333Y-109980000D01*
X117982678Y-109980000D01*
X118020000Y-109983676D01*
X118057322Y-109980000D01*
X118057333Y-109980000D01*
X118168986Y-109969003D01*
X118233742Y-109949360D01*
X118230000Y-109968172D01*
X118230000Y-110251828D01*
X118285338Y-110530033D01*
X118393888Y-110792096D01*
X118551479Y-111027947D01*
X118752053Y-111228521D01*
X118987904Y-111386112D01*
X119166285Y-111460000D01*
X117318043Y-111460000D01*
X117214637Y-111305241D01*
X117014759Y-111105363D01*
X116779727Y-110948320D01*
X116518574Y-110840147D01*
X116241335Y-110785000D01*
X115958665Y-110785000D01*
X115681426Y-110840147D01*
X115420273Y-110948320D01*
X115185241Y-111105363D01*
X114985363Y-111305241D01*
X114828320Y-111540273D01*
X114720147Y-111801426D01*
X114665000Y-112078665D01*
X114665000Y-112361335D01*
X114720147Y-112638574D01*
X114828320Y-112899727D01*
X114985363Y-113134759D01*
X115185241Y-113334637D01*
X115420273Y-113491680D01*
X115681426Y-113599853D01*
X115958665Y-113655000D01*
X116241335Y-113655000D01*
X116518574Y-113599853D01*
X116779727Y-113491680D01*
X117014759Y-113334637D01*
X117214637Y-113134759D01*
X117318043Y-112980000D01*
X122662667Y-112980000D01*
X122700000Y-112983677D01*
X122737333Y-112980000D01*
X122848986Y-112969003D01*
X122992247Y-112925546D01*
X123124276Y-112854974D01*
X123240001Y-112760001D01*
X123334974Y-112644276D01*
X123405546Y-112512247D01*
X123415557Y-112479245D01*
X123911009Y-111983794D01*
X123940001Y-111960001D01*
X123963795Y-111931008D01*
X123963799Y-111931004D01*
X124034973Y-111844277D01*
X124034974Y-111844276D01*
X124105546Y-111712247D01*
X124149003Y-111568986D01*
X124160000Y-111457333D01*
X124160000Y-111457324D01*
X124163676Y-111420001D01*
X124160000Y-111382678D01*
X124160000Y-108057322D01*
X124163676Y-108019999D01*
X124160000Y-107982676D01*
X124160000Y-107982667D01*
X124149003Y-107871014D01*
X124105546Y-107727753D01*
X124060926Y-107644276D01*
X124034974Y-107595723D01*
X123963799Y-107508997D01*
X123940001Y-107479999D01*
X123911003Y-107456201D01*
X122263804Y-105809003D01*
X122240001Y-105779999D01*
X122124276Y-105685026D01*
X121992247Y-105614454D01*
X121848986Y-105570997D01*
X121737333Y-105560000D01*
X121737322Y-105560000D01*
X121700000Y-105556324D01*
X121662678Y-105560000D01*
X121009112Y-105560000D01*
X121054662Y-105450033D01*
X121110000Y-105171828D01*
X121110000Y-104888172D01*
X121054662Y-104609967D01*
X121000828Y-104480000D01*
X125762678Y-104480000D01*
X125800000Y-104483676D01*
X125837322Y-104480000D01*
X125837333Y-104480000D01*
X125948986Y-104469003D01*
X126092247Y-104425546D01*
X126224276Y-104354974D01*
X126340001Y-104260001D01*
X126363804Y-104230997D01*
X133611004Y-96983798D01*
X133640001Y-96960001D01*
X133713864Y-96869999D01*
X133734974Y-96844277D01*
X133805546Y-96712247D01*
X133825543Y-96646323D01*
X133849003Y-96568986D01*
X133860000Y-96457333D01*
X133860000Y-96457323D01*
X133863676Y-96420001D01*
X133860000Y-96382678D01*
X133860000Y-92400313D01*
X141084742Y-92400313D01*
X141126230Y-92680918D01*
X141221664Y-92948037D01*
X141289247Y-93074479D01*
X141533727Y-93146668D01*
X142350395Y-92330000D01*
X142709605Y-92330000D01*
X143526273Y-93146668D01*
X143770753Y-93074479D01*
X143892153Y-92818115D01*
X143961205Y-92542993D01*
X143975258Y-92259687D01*
X143933770Y-91979082D01*
X143838336Y-91711963D01*
X143770753Y-91585521D01*
X143526273Y-91513332D01*
X142709605Y-92330000D01*
X142350395Y-92330000D01*
X141533727Y-91513332D01*
X141289247Y-91585521D01*
X141167847Y-91841885D01*
X141098795Y-92117007D01*
X141084742Y-92400313D01*
X133860000Y-92400313D01*
X133860000Y-91333727D01*
X141713332Y-91333727D01*
X142530000Y-92150395D01*
X143346668Y-91333727D01*
X143274479Y-91089247D01*
X143018115Y-90967847D01*
X142742993Y-90898795D01*
X142459687Y-90884742D01*
X142179082Y-90926230D01*
X141911963Y-91021664D01*
X141785521Y-91089247D01*
X141713332Y-91333727D01*
X133860000Y-91333727D01*
X133860000Y-77257322D01*
X133863676Y-77219999D01*
X133860000Y-77182676D01*
X133860000Y-77182667D01*
X133849003Y-77071014D01*
X133805546Y-76927753D01*
X133734974Y-76795724D01*
X133691777Y-76743088D01*
X133663799Y-76708996D01*
X133663795Y-76708992D01*
X133640001Y-76679999D01*
X133611008Y-76656205D01*
X129714802Y-72760000D01*
X134418057Y-72760000D01*
X134445764Y-73041309D01*
X134527818Y-73311808D01*
X134661068Y-73561101D01*
X134840392Y-73779608D01*
X135058899Y-73958932D01*
X135191858Y-74030000D01*
X135058899Y-74101068D01*
X134840392Y-74280392D01*
X134661068Y-74498899D01*
X134527818Y-74748192D01*
X134445764Y-75018691D01*
X134418057Y-75300000D01*
X134445764Y-75581309D01*
X134527818Y-75851808D01*
X134661068Y-76101101D01*
X134840392Y-76319608D01*
X135058899Y-76498932D01*
X135191858Y-76570000D01*
X135058899Y-76641068D01*
X134840392Y-76820392D01*
X134661068Y-77038899D01*
X134527818Y-77288192D01*
X134445764Y-77558691D01*
X134418057Y-77840000D01*
X134445764Y-78121309D01*
X134527818Y-78391808D01*
X134661068Y-78641101D01*
X134840392Y-78859608D01*
X135058899Y-79038932D01*
X135191858Y-79110000D01*
X135058899Y-79181068D01*
X134840392Y-79360392D01*
X134661068Y-79578899D01*
X134527818Y-79828192D01*
X134445764Y-80098691D01*
X134418057Y-80380000D01*
X134445764Y-80661309D01*
X134527818Y-80931808D01*
X134661068Y-81181101D01*
X134840392Y-81399608D01*
X135058899Y-81578932D01*
X135191858Y-81650000D01*
X135058899Y-81721068D01*
X134840392Y-81900392D01*
X134661068Y-82118899D01*
X134527818Y-82368192D01*
X134445764Y-82638691D01*
X134418057Y-82920000D01*
X134445764Y-83201309D01*
X134527818Y-83471808D01*
X134661068Y-83721101D01*
X134840392Y-83939608D01*
X135058899Y-84118932D01*
X135191858Y-84190000D01*
X135058899Y-84261068D01*
X134840392Y-84440392D01*
X134661068Y-84658899D01*
X134527818Y-84908192D01*
X134445764Y-85178691D01*
X134418057Y-85460000D01*
X134445764Y-85741309D01*
X134527818Y-86011808D01*
X134661068Y-86261101D01*
X134840392Y-86479608D01*
X135058899Y-86658932D01*
X135191858Y-86730000D01*
X135058899Y-86801068D01*
X134840392Y-86980392D01*
X134661068Y-87198899D01*
X134527818Y-87448192D01*
X134445764Y-87718691D01*
X134418057Y-88000000D01*
X134445764Y-88281309D01*
X134527818Y-88551808D01*
X134661068Y-88801101D01*
X134840392Y-89019608D01*
X135058899Y-89198932D01*
X135308192Y-89332182D01*
X135578691Y-89414236D01*
X135789508Y-89435000D01*
X136730492Y-89435000D01*
X136941309Y-89414236D01*
X137211808Y-89332182D01*
X137461101Y-89198932D01*
X137679608Y-89019608D01*
X137858932Y-88801101D01*
X137992182Y-88551808D01*
X138074236Y-88281309D01*
X138101943Y-88000000D01*
X138074236Y-87718691D01*
X137992182Y-87448192D01*
X137858932Y-87198899D01*
X137679608Y-86980392D01*
X137461101Y-86801068D01*
X137328142Y-86730000D01*
X137461101Y-86658932D01*
X137679608Y-86479608D01*
X137858932Y-86261101D01*
X137992182Y-86011808D01*
X138074236Y-85741309D01*
X138101943Y-85460000D01*
X138092905Y-85368229D01*
X143581000Y-85368229D01*
X143581000Y-85985771D01*
X143701476Y-86591446D01*
X143937799Y-87161979D01*
X144280886Y-87675446D01*
X144717554Y-88112114D01*
X145231021Y-88455201D01*
X145801554Y-88691524D01*
X146407229Y-88812000D01*
X147024771Y-88812000D01*
X147630446Y-88691524D01*
X148200979Y-88455201D01*
X148714446Y-88112114D01*
X149151114Y-87675446D01*
X149494201Y-87161979D01*
X149730524Y-86591446D01*
X149851000Y-85985771D01*
X149851000Y-85368229D01*
X149730524Y-84762554D01*
X149494201Y-84192021D01*
X149151114Y-83678554D01*
X148714446Y-83241886D01*
X148200979Y-82898799D01*
X147630446Y-82662476D01*
X147024771Y-82542000D01*
X146407229Y-82542000D01*
X145801554Y-82662476D01*
X145231021Y-82898799D01*
X144717554Y-83241886D01*
X144280886Y-83678554D01*
X143937799Y-84192021D01*
X143701476Y-84762554D01*
X143581000Y-85368229D01*
X138092905Y-85368229D01*
X138074236Y-85178691D01*
X137992182Y-84908192D01*
X137858932Y-84658899D01*
X137679608Y-84440392D01*
X137461101Y-84261068D01*
X137328142Y-84190000D01*
X137461101Y-84118932D01*
X137679608Y-83939608D01*
X137858932Y-83721101D01*
X137992182Y-83471808D01*
X138074236Y-83201309D01*
X138101943Y-82920000D01*
X138074236Y-82638691D01*
X137992182Y-82368192D01*
X137858932Y-82118899D01*
X137679608Y-81900392D01*
X137461101Y-81721068D01*
X137328142Y-81650000D01*
X137461101Y-81578932D01*
X137679608Y-81399608D01*
X137858932Y-81181101D01*
X137992182Y-80931808D01*
X138074236Y-80661309D01*
X138101943Y-80380000D01*
X138074236Y-80098691D01*
X137992182Y-79828192D01*
X137858932Y-79578899D01*
X137679608Y-79360392D01*
X137461101Y-79181068D01*
X137328142Y-79110000D01*
X137461101Y-79038932D01*
X137679608Y-78859608D01*
X137858932Y-78641101D01*
X137992182Y-78391808D01*
X138074236Y-78121309D01*
X138101943Y-77840000D01*
X138074236Y-77558691D01*
X137992182Y-77288192D01*
X137858932Y-77038899D01*
X137679608Y-76820392D01*
X137461101Y-76641068D01*
X137328142Y-76570000D01*
X137461101Y-76498932D01*
X137679608Y-76319608D01*
X137858932Y-76101101D01*
X137992182Y-75851808D01*
X138074236Y-75581309D01*
X138101943Y-75300000D01*
X138074236Y-75018691D01*
X137992182Y-74748192D01*
X137858932Y-74498899D01*
X137679608Y-74280392D01*
X137461101Y-74101068D01*
X137328142Y-74030000D01*
X137461101Y-73958932D01*
X137679608Y-73779608D01*
X137858932Y-73561101D01*
X137992182Y-73311808D01*
X138074236Y-73041309D01*
X138101943Y-72760000D01*
X138074236Y-72478691D01*
X137992182Y-72208192D01*
X137858932Y-71958899D01*
X137679608Y-71740392D01*
X137461101Y-71561068D01*
X137333259Y-71492735D01*
X137562839Y-71342601D01*
X137764500Y-71144895D01*
X137923715Y-70911646D01*
X138034367Y-70651818D01*
X138051904Y-70569039D01*
X137929915Y-70347000D01*
X136387000Y-70347000D01*
X136387000Y-70367000D01*
X136133000Y-70367000D01*
X136133000Y-70347000D01*
X134590085Y-70347000D01*
X134468096Y-70569039D01*
X134485633Y-70651818D01*
X134596285Y-70911646D01*
X134755500Y-71144895D01*
X134957161Y-71342601D01*
X135186741Y-71492735D01*
X135058899Y-71561068D01*
X134840392Y-71740392D01*
X134661068Y-71958899D01*
X134527818Y-72208192D01*
X134445764Y-72478691D01*
X134418057Y-72760000D01*
X129714802Y-72760000D01*
X129203804Y-72249003D01*
X129180001Y-72219999D01*
X129064276Y-72125026D01*
X128932247Y-72054454D01*
X128788986Y-72010997D01*
X128677333Y-72000000D01*
X128677322Y-72000000D01*
X128640000Y-71996324D01*
X128602678Y-72000000D01*
X127720901Y-72000000D01*
X127698932Y-71958899D01*
X127519608Y-71740392D01*
X127406518Y-71647581D01*
X127424482Y-71645812D01*
X127544180Y-71609502D01*
X127654494Y-71550537D01*
X127751185Y-71471185D01*
X127830537Y-71374494D01*
X127889502Y-71264180D01*
X127925812Y-71144482D01*
X127938072Y-71020000D01*
X127938072Y-69870961D01*
X134468096Y-69870961D01*
X134590085Y-70093000D01*
X136133000Y-70093000D01*
X136133000Y-68785000D01*
X136387000Y-68785000D01*
X136387000Y-70093000D01*
X137929915Y-70093000D01*
X138051904Y-69870961D01*
X138034367Y-69788182D01*
X137923715Y-69528354D01*
X137764500Y-69295105D01*
X137562839Y-69097399D01*
X137326483Y-68942834D01*
X137064514Y-68837350D01*
X136787000Y-68785000D01*
X136387000Y-68785000D01*
X136133000Y-68785000D01*
X135733000Y-68785000D01*
X135455486Y-68837350D01*
X135193517Y-68942834D01*
X134957161Y-69097399D01*
X134755500Y-69295105D01*
X134596285Y-69528354D01*
X134485633Y-69788182D01*
X134468096Y-69870961D01*
X127938072Y-69870961D01*
X127938072Y-69420000D01*
X127925812Y-69295518D01*
X127889502Y-69175820D01*
X127830537Y-69065506D01*
X127751185Y-68968815D01*
X127654494Y-68889463D01*
X127544180Y-68830498D01*
X127424482Y-68794188D01*
X127300000Y-68781928D01*
X124900000Y-68781928D01*
X124775518Y-68794188D01*
X124655820Y-68830498D01*
X124545506Y-68889463D01*
X124448815Y-68968815D01*
X124369463Y-69065506D01*
X124310498Y-69175820D01*
X124274188Y-69295518D01*
X124261928Y-69420000D01*
X124261928Y-71020000D01*
X124274188Y-71144482D01*
X124310498Y-71264180D01*
X124369463Y-71374494D01*
X124448815Y-71471185D01*
X124545506Y-71550537D01*
X124655820Y-71609502D01*
X124775518Y-71645812D01*
X124793482Y-71647581D01*
X124680392Y-71740392D01*
X124501068Y-71958899D01*
X124367818Y-72208192D01*
X124285764Y-72478691D01*
X124258057Y-72760000D01*
X124285764Y-73041309D01*
X124367818Y-73311808D01*
X124501068Y-73561101D01*
X124680392Y-73779608D01*
X124898899Y-73958932D01*
X125031858Y-74030000D01*
X124898899Y-74101068D01*
X124680392Y-74280392D01*
X124501068Y-74498899D01*
X124479099Y-74540000D01*
X120057323Y-74540000D01*
X120020000Y-74536324D01*
X119982677Y-74540000D01*
X119982667Y-74540000D01*
X119871014Y-74550997D01*
X119727753Y-74594454D01*
X119595723Y-74665026D01*
X119512083Y-74733668D01*
X119479999Y-74759999D01*
X119456201Y-74788997D01*
X110588998Y-83656201D01*
X110560000Y-83679999D01*
X110536202Y-83708997D01*
X110536201Y-83708998D01*
X110465026Y-83795724D01*
X110394454Y-83927754D01*
X110364956Y-84025000D01*
X110350998Y-84071014D01*
X110345403Y-84127818D01*
X110336324Y-84220000D01*
X110340001Y-84257332D01*
X110340000Y-89905198D01*
X106083198Y-94162001D01*
X103858828Y-94162001D01*
X103941706Y-94061014D01*
X104079599Y-93803034D01*
X104164513Y-93523111D01*
X104193185Y-93232000D01*
X104164513Y-92940889D01*
X104079599Y-92660966D01*
X103941706Y-92402986D01*
X103756134Y-92176866D01*
X103726313Y-92152393D01*
X103795180Y-92131502D01*
X103905494Y-92072537D01*
X104002185Y-91993185D01*
X104081537Y-91896494D01*
X104140502Y-91786180D01*
X104176812Y-91666482D01*
X104189072Y-91542000D01*
X104186000Y-90977750D01*
X104027250Y-90819000D01*
X102828000Y-90819000D01*
X102828000Y-90839000D01*
X102574000Y-90839000D01*
X102574000Y-90819000D01*
X101374750Y-90819000D01*
X101216000Y-90977750D01*
X101212928Y-91542000D01*
X101225188Y-91666482D01*
X101261498Y-91786180D01*
X101320463Y-91896494D01*
X101399815Y-91993185D01*
X101496506Y-92072537D01*
X101606820Y-92131502D01*
X101675687Y-92152393D01*
X101645866Y-92176866D01*
X101460294Y-92402986D01*
X101322401Y-92660966D01*
X101237487Y-92940889D01*
X101208815Y-93232000D01*
X101237487Y-93523111D01*
X101322401Y-93803034D01*
X101460294Y-94061014D01*
X101645866Y-94287134D01*
X101871986Y-94472706D01*
X101926791Y-94502000D01*
X101871986Y-94531294D01*
X101645866Y-94716866D01*
X101460294Y-94942986D01*
X101322401Y-95200966D01*
X101237487Y-95480889D01*
X101208815Y-95772000D01*
X101237487Y-96063111D01*
X101322401Y-96343034D01*
X101460294Y-96601014D01*
X101645866Y-96827134D01*
X101871986Y-97012706D01*
X101926791Y-97042000D01*
X101871986Y-97071294D01*
X101645866Y-97256866D01*
X101460294Y-97482986D01*
X101423405Y-97552000D01*
X100229325Y-97552000D01*
X100192000Y-97548324D01*
X100154675Y-97552000D01*
X100154667Y-97552000D01*
X100043014Y-97562997D01*
X99899753Y-97606454D01*
X99767724Y-97677026D01*
X99651999Y-97771999D01*
X99628196Y-97801003D01*
X99589003Y-97840196D01*
X99559999Y-97863999D01*
X99504871Y-97931174D01*
X99465026Y-97979724D01*
X99394455Y-98111753D01*
X99394454Y-98111754D01*
X99350997Y-98255015D01*
X99340000Y-98366668D01*
X99340000Y-98366678D01*
X99336324Y-98404000D01*
X97760000Y-98404000D01*
X97760000Y-89842000D01*
X101212928Y-89842000D01*
X101216000Y-90406250D01*
X101374750Y-90565000D01*
X102574000Y-90565000D01*
X102574000Y-89365750D01*
X102828000Y-89365750D01*
X102828000Y-90565000D01*
X104027250Y-90565000D01*
X104186000Y-90406250D01*
X104189072Y-89842000D01*
X104176812Y-89717518D01*
X104140502Y-89597820D01*
X104081537Y-89487506D01*
X104002185Y-89390815D01*
X103905494Y-89311463D01*
X103795180Y-89252498D01*
X103675482Y-89216188D01*
X103551000Y-89203928D01*
X102986750Y-89207000D01*
X102828000Y-89365750D01*
X102574000Y-89365750D01*
X102415250Y-89207000D01*
X101851000Y-89203928D01*
X101726518Y-89216188D01*
X101606820Y-89252498D01*
X101496506Y-89311463D01*
X101399815Y-89390815D01*
X101320463Y-89487506D01*
X101261498Y-89597820D01*
X101225188Y-89717518D01*
X101212928Y-89842000D01*
X97760000Y-89842000D01*
X97760000Y-82058967D01*
X100465000Y-82058967D01*
X100465000Y-82381033D01*
X100527832Y-82696912D01*
X100651082Y-82994463D01*
X100830013Y-83262252D01*
X101057748Y-83489987D01*
X101325537Y-83668918D01*
X101623088Y-83792168D01*
X101938967Y-83855000D01*
X102261033Y-83855000D01*
X102576912Y-83792168D01*
X102874463Y-83668918D01*
X103142252Y-83489987D01*
X103369987Y-83262252D01*
X103548918Y-82994463D01*
X103672168Y-82696912D01*
X103735000Y-82381033D01*
X103735000Y-82058967D01*
X105465000Y-82058967D01*
X105465000Y-82381033D01*
X105527832Y-82696912D01*
X105651082Y-82994463D01*
X105830013Y-83262252D01*
X106057748Y-83489987D01*
X106325537Y-83668918D01*
X106623088Y-83792168D01*
X106938967Y-83855000D01*
X107261033Y-83855000D01*
X107576912Y-83792168D01*
X107874463Y-83668918D01*
X108142252Y-83489987D01*
X108369987Y-83262252D01*
X108548918Y-82994463D01*
X108672168Y-82696912D01*
X108735000Y-82381033D01*
X108735000Y-82058967D01*
X108672168Y-81743088D01*
X108548918Y-81445537D01*
X108369987Y-81177748D01*
X108142252Y-80950013D01*
X107874463Y-80771082D01*
X107576912Y-80647832D01*
X107261033Y-80585000D01*
X106938967Y-80585000D01*
X106623088Y-80647832D01*
X106325537Y-80771082D01*
X106057748Y-80950013D01*
X105830013Y-81177748D01*
X105651082Y-81445537D01*
X105527832Y-81743088D01*
X105465000Y-82058967D01*
X103735000Y-82058967D01*
X103672168Y-81743088D01*
X103548918Y-81445537D01*
X103369987Y-81177748D01*
X103142252Y-80950013D01*
X102874463Y-80771082D01*
X102576912Y-80647832D01*
X102261033Y-80585000D01*
X101938967Y-80585000D01*
X101623088Y-80647832D01*
X101325537Y-80771082D01*
X101057748Y-80950013D01*
X100830013Y-81177748D01*
X100651082Y-81445537D01*
X100527832Y-81743088D01*
X100465000Y-82058967D01*
X97760000Y-82058967D01*
X97760000Y-77058967D01*
X100465000Y-77058967D01*
X100465000Y-77381033D01*
X100527832Y-77696912D01*
X100651082Y-77994463D01*
X100830013Y-78262252D01*
X101057748Y-78489987D01*
X101325537Y-78668918D01*
X101623088Y-78792168D01*
X101938967Y-78855000D01*
X102261033Y-78855000D01*
X102576912Y-78792168D01*
X102874463Y-78668918D01*
X103142252Y-78489987D01*
X103369987Y-78262252D01*
X103548918Y-77994463D01*
X103672168Y-77696912D01*
X103735000Y-77381033D01*
X103735000Y-77058967D01*
X105465000Y-77058967D01*
X105465000Y-77381033D01*
X105527832Y-77696912D01*
X105651082Y-77994463D01*
X105830013Y-78262252D01*
X106057748Y-78489987D01*
X106325537Y-78668918D01*
X106623088Y-78792168D01*
X106938967Y-78855000D01*
X107261033Y-78855000D01*
X107576912Y-78792168D01*
X107874463Y-78668918D01*
X108142252Y-78489987D01*
X108369987Y-78262252D01*
X108548918Y-77994463D01*
X108672168Y-77696912D01*
X108735000Y-77381033D01*
X108735000Y-77058967D01*
X108672168Y-76743088D01*
X108548918Y-76445537D01*
X108369987Y-76177748D01*
X108142252Y-75950013D01*
X107874463Y-75771082D01*
X107576912Y-75647832D01*
X107261033Y-75585000D01*
X106938967Y-75585000D01*
X106623088Y-75647832D01*
X106325537Y-75771082D01*
X106057748Y-75950013D01*
X105830013Y-76177748D01*
X105651082Y-76445537D01*
X105527832Y-76743088D01*
X105465000Y-77058967D01*
X103735000Y-77058967D01*
X103672168Y-76743088D01*
X103666177Y-76728624D01*
X112414802Y-67980000D01*
X140785199Y-67980000D01*
X152340000Y-79534802D01*
X152340001Y-94145197D01*
X143970000Y-102515199D01*
X143970000Y-102348172D01*
X143914662Y-102069967D01*
X143806112Y-101807904D01*
X143648521Y-101572053D01*
X143447947Y-101371479D01*
X143221243Y-101220000D01*
X143447947Y-101068521D01*
X143648521Y-100867947D01*
X143806112Y-100632096D01*
X143914662Y-100370033D01*
X143970000Y-100091828D01*
X143970000Y-99808172D01*
X143914662Y-99529967D01*
X143806112Y-99267904D01*
X143648521Y-99032053D01*
X143447947Y-98831479D01*
X143221243Y-98680000D01*
X143447947Y-98528521D01*
X143648521Y-98327947D01*
X143806112Y-98092096D01*
X143914662Y-97830033D01*
X143970000Y-97551828D01*
X143970000Y-97268172D01*
X143914662Y-96989967D01*
X143806112Y-96727904D01*
X143648521Y-96492053D01*
X143447947Y-96291479D01*
X143221243Y-96140000D01*
X143447947Y-95988521D01*
X143648521Y-95787947D01*
X143806112Y-95552096D01*
X143914662Y-95290033D01*
X143970000Y-95011828D01*
X143970000Y-94728172D01*
X143914662Y-94449967D01*
X143806112Y-94187904D01*
X143648521Y-93952053D01*
X143447947Y-93751479D01*
X143220584Y-93599560D01*
X143274479Y-93570753D01*
X143346668Y-93326273D01*
X142530000Y-92509605D01*
X141713332Y-93326273D01*
X141785521Y-93570753D01*
X141842293Y-93597637D01*
X141612053Y-93751479D01*
X141411479Y-93952053D01*
X141253888Y-94187904D01*
X141145338Y-94449967D01*
X141090000Y-94728172D01*
X141090000Y-95011828D01*
X141145338Y-95290033D01*
X141253888Y-95552096D01*
X141411479Y-95787947D01*
X141612053Y-95988521D01*
X141838757Y-96140000D01*
X141612053Y-96291479D01*
X141411479Y-96492053D01*
X141253888Y-96727904D01*
X141145338Y-96989967D01*
X141090000Y-97268172D01*
X141090000Y-97551828D01*
X141145338Y-97830033D01*
X141253888Y-98092096D01*
X141411479Y-98327947D01*
X141612053Y-98528521D01*
X141838757Y-98680000D01*
X141612053Y-98831479D01*
X141411479Y-99032053D01*
X141253888Y-99267904D01*
X141145338Y-99529967D01*
X141090000Y-99808172D01*
X141090000Y-100091828D01*
X141145338Y-100370033D01*
X141253888Y-100632096D01*
X141411479Y-100867947D01*
X141612053Y-101068521D01*
X141838757Y-101220000D01*
X141612053Y-101371479D01*
X141411479Y-101572053D01*
X141253888Y-101807904D01*
X141145338Y-102069967D01*
X141090000Y-102348172D01*
X141090000Y-102631828D01*
X141145338Y-102910033D01*
X141253888Y-103172096D01*
X141411479Y-103407947D01*
X141612053Y-103608521D01*
X141838757Y-103760000D01*
X141612053Y-103911479D01*
X141411479Y-104112053D01*
X141253888Y-104347904D01*
X141145338Y-104609967D01*
X141090000Y-104888172D01*
X141090000Y-105171828D01*
X141145338Y-105450033D01*
X141253888Y-105712096D01*
X141411479Y-105947947D01*
X141612053Y-106148521D01*
X141838757Y-106300000D01*
X141612053Y-106451479D01*
X141411479Y-106652053D01*
X141253888Y-106887904D01*
X141145338Y-107149967D01*
X141090000Y-107428172D01*
X141090000Y-107711828D01*
X141145338Y-107990033D01*
X141253888Y-108252096D01*
X141411479Y-108487947D01*
X141612053Y-108688521D01*
X141838757Y-108840000D01*
X141612053Y-108991479D01*
X141411479Y-109192053D01*
X141253888Y-109427904D01*
X141145338Y-109689967D01*
X141090000Y-109968172D01*
X141090000Y-110251828D01*
X141145338Y-110530033D01*
X141253888Y-110792096D01*
X141411479Y-111027947D01*
X141612053Y-111228521D01*
X141847904Y-111386112D01*
X142109967Y-111494662D01*
X142388172Y-111550000D01*
X142671828Y-111550000D01*
X142950033Y-111494662D01*
X143212096Y-111386112D01*
X143447947Y-111228521D01*
X143648521Y-111027947D01*
X143806112Y-110792096D01*
X143914662Y-110530033D01*
X143970000Y-110251828D01*
X143970000Y-109968172D01*
X143914662Y-109689967D01*
X143806112Y-109427904D01*
X143648521Y-109192053D01*
X143447947Y-108991479D01*
X143221243Y-108840000D01*
X143447947Y-108688521D01*
X143648521Y-108487947D01*
X143806112Y-108252096D01*
X143914662Y-107990033D01*
X143970000Y-107711828D01*
X143970000Y-107428172D01*
X143914662Y-107149967D01*
X143806112Y-106887904D01*
X143648521Y-106652053D01*
X143447947Y-106451479D01*
X143221243Y-106300000D01*
X143447947Y-106148521D01*
X143585927Y-106010541D01*
X143701476Y-106591446D01*
X143937799Y-107161979D01*
X144280886Y-107675446D01*
X144717554Y-108112114D01*
X145231021Y-108455201D01*
X145801554Y-108691524D01*
X146407229Y-108812000D01*
X147024771Y-108812000D01*
X147630446Y-108691524D01*
X148200979Y-108455201D01*
X148714446Y-108112114D01*
X149151114Y-107675446D01*
X149494201Y-107161979D01*
X149730524Y-106591446D01*
X149851000Y-105985771D01*
X149851000Y-105368229D01*
X149730524Y-104762554D01*
X149494201Y-104192021D01*
X149151114Y-103678554D01*
X148714446Y-103241886D01*
X148200979Y-102898799D01*
X147630446Y-102662476D01*
X147024771Y-102542000D01*
X146407229Y-102542000D01*
X146014728Y-102620073D01*
X153611003Y-95023799D01*
X153640001Y-95000001D01*
X153734974Y-94884276D01*
X153805546Y-94752247D01*
X153849003Y-94608986D01*
X153860000Y-94497333D01*
X153860000Y-94497324D01*
X153863676Y-94460001D01*
X153860000Y-94422678D01*
X153860000Y-79257325D01*
X153863676Y-79220000D01*
X153860000Y-79182675D01*
X153860000Y-79182667D01*
X153849003Y-79071014D01*
X153805546Y-78927753D01*
X153734974Y-78795724D01*
X153640001Y-78679999D01*
X153611004Y-78656202D01*
X143912125Y-68957323D01*
X150433000Y-68957323D01*
X150433000Y-69482677D01*
X150535492Y-69997935D01*
X150736536Y-70483298D01*
X151028406Y-70920113D01*
X151399887Y-71291594D01*
X151836702Y-71583464D01*
X152322065Y-71784508D01*
X152837323Y-71887000D01*
X153362677Y-71887000D01*
X153877935Y-71784508D01*
X154363298Y-71583464D01*
X154800113Y-71291594D01*
X155171594Y-70920113D01*
X155463464Y-70483298D01*
X155664508Y-69997935D01*
X155767000Y-69482677D01*
X155767000Y-68957323D01*
X155664508Y-68442065D01*
X155463464Y-67956702D01*
X155171594Y-67519887D01*
X154800113Y-67148406D01*
X154363298Y-66856536D01*
X153877935Y-66655492D01*
X153362677Y-66553000D01*
X152837323Y-66553000D01*
X152322065Y-66655492D01*
X151836702Y-66856536D01*
X151399887Y-67148406D01*
X151028406Y-67519887D01*
X150736536Y-67956702D01*
X150535492Y-68442065D01*
X150433000Y-68957323D01*
X143912125Y-68957323D01*
X141663804Y-66709003D01*
X141640001Y-66679999D01*
X141524276Y-66585026D01*
X141392247Y-66514454D01*
X141248986Y-66470997D01*
X141137333Y-66460000D01*
X141137322Y-66460000D01*
X141100000Y-66456324D01*
X141062678Y-66460000D01*
X112137333Y-66460000D01*
X112100000Y-66456323D01*
X112062667Y-66460000D01*
X111951014Y-66470997D01*
X111807753Y-66514454D01*
X111675724Y-66585026D01*
X111559999Y-66679999D01*
X111536201Y-66708997D01*
X102591376Y-75653823D01*
X102576912Y-75647832D01*
X102261033Y-75585000D01*
X101938967Y-75585000D01*
X101623088Y-75647832D01*
X101325537Y-75771082D01*
X101057748Y-75950013D01*
X100830013Y-76177748D01*
X100651082Y-76445537D01*
X100527832Y-76743088D01*
X100465000Y-77058967D01*
X97760000Y-77058967D01*
X97760000Y-68957323D01*
X98433000Y-68957323D01*
X98433000Y-69482677D01*
X98535492Y-69997935D01*
X98736536Y-70483298D01*
X99028406Y-70920113D01*
X99399887Y-71291594D01*
X99836702Y-71583464D01*
X100322065Y-71784508D01*
X100837323Y-71887000D01*
X101362677Y-71887000D01*
X101877935Y-71784508D01*
X102363298Y-71583464D01*
X102800113Y-71291594D01*
X103171594Y-70920113D01*
X103463464Y-70483298D01*
X103664508Y-69997935D01*
X103767000Y-69482677D01*
X103767000Y-68957323D01*
X103664508Y-68442065D01*
X103463464Y-67956702D01*
X103171594Y-67519887D01*
X102800113Y-67148406D01*
X102363298Y-66856536D01*
X101877935Y-66655492D01*
X101362677Y-66553000D01*
X100837323Y-66553000D01*
X100322065Y-66655492D01*
X99836702Y-66856536D01*
X99399887Y-67148406D01*
X99028406Y-67519887D01*
X98736536Y-67956702D01*
X98535492Y-68442065D01*
X98433000Y-68957323D01*
X97760000Y-68957323D01*
X97760000Y-65880000D01*
X156440000Y-65880000D01*
X156440001Y-108775862D01*
M02*
