M48
; DRILL file {KiCad (5.1.2-1)-1} date Friday, May 17, 2019 at 06:30:50 PM
; FORMAT={-:-/ absolute / inch / decimal}
; #@! TF.CreationDate,2019-05-17T18:30:50-07:00
; #@! TF.GenerationSoftware,Kicad,Pcbnew,(5.1.2-1)-1
FMAT,2
INCH
T1C0.0315
T2C0.0394
T3C0.0433
T4C0.0437
T5C0.1200
%
G90
G05
T1
X4.1709Y-4.4181
X4.5709Y-4.4181
X4.9646Y-2.7646
X4.9646Y-2.8646
X4.9646Y-2.9646
X4.9646Y-3.0646
X4.9646Y-3.1646
X4.9646Y-3.2646
X4.9646Y-3.3646
X4.9646Y-3.4646
X5.3646Y-2.7646
X5.3646Y-2.8646
X5.3646Y-2.9646
X5.3646Y-3.0646
X5.3646Y-3.1646
X5.3646Y-3.2646
X5.3646Y-3.3646
X5.3646Y-3.4646
T2
X4.0433Y-3.5706
X4.0433Y-3.6706
X4.0433Y-3.7706
X4.0433Y-3.8706
X4.0433Y-3.9706
X4.1772Y-4.1425
X4.1772Y-4.2425
T3
X4.0197Y-3.0402
X4.0197Y-3.237
X4.2165Y-3.0402
X4.2165Y-3.237
T4
X4.7114Y-3.635
X4.7114Y-3.735
X4.7114Y-3.835
X4.7114Y-3.935
X4.7114Y-4.035
X4.7114Y-4.135
X4.7114Y-4.235
X4.7114Y-4.335
X5.6114Y-3.635
X5.6114Y-3.735
X5.6114Y-3.835
X5.6114Y-3.935
X5.6114Y-4.035
X5.6114Y-4.135
X5.6114Y-4.235
X5.6114Y-4.335
T5
X6.0276Y-2.7252
X3.9803Y-4.3787
X4.5164Y-3.3731
X4.5164Y-4.1605
X5.7762Y-3.3731
X5.7762Y-4.1605
X6.0276Y-4.3787
X3.9803Y-2.7252
T0
M30
